<svg width="36" height="36" viewBox="0 0 36 36" fill="none" xmlns="http://www.w3.org/2000/svg">
<g clip-path="url(#clip0_13_1444)">
<path d="M18 36C8.0707 36 0 27.9293 0 18C0 8.0707 8.0707 0 18 0C27.9293 0 36 8.0707 36 18C36 27.9293 27.9293 36 18 36ZM18 2.51163C9.46047 2.51163 2.51163 9.46047 2.51163 18C2.51163 26.5395 9.46047 33.4884 18 33.4884C26.5395 33.4884 33.4884 26.5395 33.4884 18C33.4884 9.46047 26.5395 2.51163 18 2.51163Z" fill="#001F3E"/>
<path d="M20.6404 18.8998H14.1363C13.6443 18.8998 13.2363 18.4918 13.2363 17.9998V12.8039C13.2363 12.3119 13.6443 11.9039 14.1363 11.9039H20.6404C22.5004 11.9039 24.1444 13.5359 24.1444 15.4079C24.1444 17.3278 22.5724 18.8998 20.6404 18.8998ZM15.0363 17.0998H20.6404C21.5764 17.0998 22.3444 16.3318 22.3444 15.3959C22.3444 14.6039 21.6004 13.6919 20.6404 13.6919H15.0363V17.0998Z" fill="#001F3E"/>
<path d="M21.5644 24.096H14.1363C13.6443 24.096 13.2363 23.688 13.2363 23.196V18C13.2363 17.508 13.6443 17.1 14.1363 17.1H21.5644C23.7004 17.1 25.4404 18.672 25.4404 20.604C25.4404 22.536 23.7004 24.096 21.5644 24.096ZM15.0363 22.296H21.5644C22.7044 22.296 23.6404 21.528 23.6404 20.592C23.6404 19.656 22.7164 18.888 21.5644 18.888H15.0363V22.296Z" fill="#001F3E"/>
<path d="M18.6844 26.7001C18.1924 26.7001 17.7844 26.2921 17.7844 25.8001V23.1961C17.7844 22.7041 18.1924 22.2961 18.6844 22.2961C19.1764 22.2961 19.5844 22.7041 19.5844 23.1961V25.8001C19.5844 26.2921 19.1884 26.7001 18.6844 26.7001Z" fill="#001F3E"/>
<path d="M15.4441 26.7001C14.9521 26.7001 14.5441 26.2921 14.5441 25.8001V23.1961C14.5441 22.7041 14.9521 22.2961 15.4441 22.2961C15.9361 22.2961 16.3441 22.7041 16.3441 23.1961V25.8001C16.3441 26.2921 15.9361 26.7001 15.4441 26.7001Z" fill="#001F3E"/>
<path d="M18.6844 13.704C18.1924 13.704 17.7844 13.296 17.7844 12.804V10.2C17.7844 9.70799 18.1924 9.29999 18.6844 9.29999C19.1764 9.29999 19.5844 9.70799 19.5844 10.2V12.804C19.5844 13.296 19.1884 13.704 18.6844 13.704Z" fill="#001F3E"/>
<path d="M15.4441 13.704C14.9521 13.704 14.5441 13.296 14.5441 12.804V10.2C14.5441 9.70799 14.9521 9.29999 15.4441 9.29999C15.9361 9.29999 16.3441 9.70799 16.3441 10.2V12.804C16.3441 13.296 15.9361 13.704 15.4441 13.704Z" fill="#001F3E"/>
<path d="M16.6078 13.7039H12.0598C11.5678 13.7039 11.1598 13.2959 11.1598 12.8039C11.1598 12.3119 11.5678 11.9039 12.0598 11.9039H16.6078C17.0998 11.9039 17.5078 12.3119 17.5078 12.8039C17.5078 13.2959 17.1118 13.7039 16.6078 13.7039Z" fill="#001F3E"/>
<path d="M16.6078 24.0961H12.0598C11.5678 24.0961 11.1598 23.6881 11.1598 23.1961C11.1598 22.7041 11.5678 22.2961 12.0598 22.2961H16.6078C17.0998 22.2961 17.5078 22.7041 17.5078 23.1961C17.5078 23.6881 17.1118 24.0961 16.6078 24.0961Z" fill="#001F3E"/>
</g>
<defs>
<clipPath id="clip0_13_1444">
<rect width="36" height="36" fill="white"/>
</clipPath>
</defs>
</svg>

