<svg width="40" height="40" viewBox="0 0 40 40" fill="none" xmlns="http://www.w3.org/2000/svg">
<path d="M7.27442 26.4318L3.96437 23.1218C3.74086 22.8983 3.74086 22.5193 3.96437 22.2958L22.2958 3.96437C22.5193 3.74086 22.8983 3.74086 23.1218 3.96437L26.4318 7.27443L7.27442 26.4318ZM16.8782 36.0356L8.65804 27.8155L27.8154 8.65805L36.029 16.8716C36.0293 16.8719 36.0296 16.8722 36.0299 16.8725C36.2666 17.1193 36.2535 17.4863 36.0356 17.7042L17.7042 36.0356C17.4807 36.2591 17.1017 36.2591 16.8782 36.0356ZM37.4284 15.5038L37.4269 15.5023L24.5054 2.58075C23.5177 1.59308 21.8998 1.59308 20.9122 2.58075L2.58075 20.9122C1.59308 21.8999 1.59308 23.5177 2.58075 24.5054L15.4946 37.4192C16.4823 38.4069 18.1001 38.4069 19.0878 37.4192L37.4192 19.0878C38.412 18.095 38.3987 16.5004 37.4284 15.5038Z" fill="#001F3E" stroke="#001F3E" stroke-width="0.32" stroke-miterlimit="10"/>
</svg>

