<svg width="20" height="20" viewBox="0 0 20 20" fill="none" xmlns="http://www.w3.org/2000/svg">
<path d="M16.0584 4.44187C14.9501 3.9252 13.7501 3.5502 12.5001 3.33353C12.4891 3.33318 12.4782 3.33524 12.4681 3.33956C12.458 3.34388 12.449 3.35036 12.4417 3.35853C12.2917 3.63353 12.1167 3.99187 12.0001 4.26687C10.6742 4.06687 9.32589 4.06687 8.00006 4.26687C7.88339 3.98353 7.70839 3.63353 7.55006 3.35853C7.54172 3.34187 7.51672 3.33353 7.49172 3.33353C6.24172 3.5502 5.05006 3.9252 3.93339 4.44187C3.92506 4.44187 3.91672 4.4502 3.90839 4.45853C1.64172 7.8502 1.01672 11.1502 1.32506 14.4169C1.32506 14.4335 1.33339 14.4502 1.35006 14.4585C2.85006 15.5585 4.29172 16.2252 5.71672 16.6669C5.74172 16.6752 5.76672 16.6669 5.77506 16.6502C6.10839 16.1919 6.40839 15.7085 6.66672 15.2002C6.68339 15.1669 6.66672 15.1335 6.63339 15.1252C6.15839 14.9419 5.70839 14.7252 5.26672 14.4752C5.23339 14.4585 5.23339 14.4085 5.25839 14.3835C5.35006 14.3169 5.44172 14.2419 5.53339 14.1752C5.55006 14.1585 5.57506 14.1585 5.59172 14.1669C8.45839 15.4752 11.5501 15.4752 14.3834 14.1669C14.4001 14.1585 14.4251 14.1585 14.4417 14.1752C14.5334 14.2502 14.6251 14.3169 14.7167 14.3919C14.7501 14.4169 14.7501 14.4669 14.7084 14.4835C14.2751 14.7419 13.8167 14.9502 13.3417 15.1335C13.3084 15.1419 13.3001 15.1835 13.3084 15.2085C13.5751 15.7169 13.8751 16.2002 14.2001 16.6585C14.2251 16.6669 14.2501 16.6752 14.2751 16.6669C15.7084 16.2252 17.1501 15.5585 18.6501 14.4585C18.6667 14.4502 18.6751 14.4335 18.6751 14.4169C19.0417 10.6419 18.0667 7.36687 16.0917 4.45853C16.0834 4.4502 16.0751 4.44187 16.0584 4.44187ZM7.10006 12.4252C6.24172 12.4252 5.52506 11.6335 5.52506 10.6585C5.52506 9.68353 6.22506 8.89187 7.10006 8.89187C7.98339 8.89187 8.68339 9.69187 8.67506 10.6585C8.67506 11.6335 7.97506 12.4252 7.10006 12.4252ZM12.9084 12.4252C12.0501 12.4252 11.3334 11.6335 11.3334 10.6585C11.3334 9.68353 12.0334 8.89187 12.9084 8.89187C13.7917 8.89187 14.4917 9.69187 14.4834 10.6585C14.4834 11.6335 13.7917 12.4252 12.9084 12.4252Z" fill="#001F3E"/>
</svg>
