<svg xmlns="http://www.w3.org/2000/svg" width="42" height="42" viewBox="0 0 42 42" fill="none">
<path fill-rule="evenodd" clip-rule="evenodd" d="M21 5.5C12.053 5.5 5.5 12.053 5.5 21C5.5 29.947 12.053 36.5 21 36.5C29.947 36.5 36.5 29.947 36.5 21C36.5 12.053 29.947 5.5 21 5.5ZM3 21C3 11.0589 11.0589 3 21 3C30.9411 3 39 11.0589 39 21C39 30.9411 30.9411 39 21 39C11.0589 39 3 30.9411 3 21Z" fill="#001F3E"/>
<path d="M24.745 26.495C24.0635 27.1116 23.0962 27.4724 21.8291 27.5775C21.6591 27.5916 21.525 27.7315 21.525 27.9021V29.43C21.525 29.6067 21.3817 29.75 21.205 29.75H20.9175C20.7407 29.75 20.5975 29.6067 20.5975 29.43V27.9346C20.5975 27.765 20.4651 27.6255 20.2962 27.6105C19.4978 27.5396 18.7425 27.372 18.0425 27.1075C17.3327 26.8452 16.7591 26.5013 16.3214 26.1118C16.2179 26.0197 16.1949 25.8689 16.2577 25.7455L16.4994 25.2698C16.5967 25.0783 16.8519 25.035 17.021 25.1675C17.4011 25.4653 17.8556 25.7243 18.3925 25.9525C18.9884 26.1909 19.6097 26.3531 20.2564 26.4285C20.4404 26.45 20.5975 26.3027 20.5975 26.1174V21.8111C20.5975 21.6637 20.4967 21.5356 20.3539 21.4989C19.6034 21.3061 18.9686 21.0989 18.4625 20.8775C17.885 20.6325 17.4125 20.2825 17.045 19.81C16.66 19.3375 16.4675 18.7075 16.4675 17.955C16.4675 16.9925 16.8175 16.1875 17.5175 15.54C18.1661 14.94 19.1002 14.5654 20.3197 14.4301C20.4859 14.4117 20.615 14.2734 20.615 14.1062V12.57C20.615 12.3933 20.7582 12.25 20.935 12.25H21.2225C21.3992 12.25 21.5425 12.3933 21.5425 12.57V14.0554C21.5425 14.229 21.681 14.3702 21.8542 14.3822C22.4496 14.4233 23.0412 14.5387 23.6075 14.7175C24.1741 14.8965 24.6773 15.1135 25.1061 15.3795C25.2346 15.4593 25.2798 15.622 25.2203 15.761L24.9966 16.2829C24.9194 16.4629 24.7003 16.5315 24.5294 16.4358C24.1158 16.2041 23.6801 16.0075 23.2225 15.855C22.7582 15.7002 22.3052 15.602 21.8544 15.5604C21.6746 15.5438 21.525 15.6895 21.525 15.8702V20.2252C21.525 20.372 21.625 20.4998 21.7672 20.5365C22.5693 20.7435 23.2411 20.9505 23.7825 21.1575C24.36 21.385 24.85 21.735 25.2525 22.2075C25.655 22.68 25.8475 23.2925 25.8475 24.0625C25.8475 25.025 25.48 25.83 24.745 26.495ZM18.55 19.3725C18.9487 19.6531 19.4969 19.8962 20.1946 20.1126C20.3963 20.1751 20.5975 20.0215 20.5975 19.8103V15.9272C20.5975 15.7384 20.4345 15.5897 20.2478 15.618C19.5065 15.7303 18.925 15.963 18.515 16.3275C18.0425 16.765 17.815 17.2725 17.815 17.9025C17.8325 18.55 18.06 19.04 18.55 19.3725ZM23.7475 25.7075C24.2375 25.305 24.5 24.78 24.5 24.15C24.5 23.485 24.2375 22.9775 23.73 22.645C23.2948 22.3599 22.6924 22.1134 21.9226 21.8944C21.7219 21.8373 21.525 21.9904 21.525 22.1992V26.0927C21.525 26.2806 21.6864 26.4289 21.8727 26.4035C22.6809 26.2929 23.3019 26.0609 23.7475 25.7075Z" fill="#001F3E"/>
<path d="M24.745 26.495C24.0635 27.1116 23.0962 27.4724 21.8291 27.5775C21.6591 27.5916 21.525 27.7315 21.525 27.9021V29.43C21.525 29.6067 21.3817 29.75 21.205 29.75H20.9175C20.7407 29.75 20.5975 29.6067 20.5975 29.43V27.9346C20.5975 27.765 20.4651 27.6255 20.2962 27.6105C19.4978 27.5396 18.7425 27.372 18.0425 27.1075C17.3327 26.8452 16.7591 26.5013 16.3214 26.1118C16.2179 26.0197 16.1949 25.8689 16.2577 25.7455L16.4994 25.2698C16.5967 25.0783 16.8519 25.035 17.021 25.1675C17.4011 25.4653 17.8556 25.7243 18.3925 25.9525C18.9884 26.1909 19.6097 26.3531 20.2564 26.4285C20.4404 26.45 20.5975 26.3027 20.5975 26.1174V21.8111C20.5975 21.6637 20.4967 21.5356 20.3539 21.4989C19.6034 21.3061 18.9686 21.0989 18.4625 20.8775C17.885 20.6325 17.4125 20.2825 17.045 19.81C16.66 19.3375 16.4675 18.7075 16.4675 17.955C16.4675 16.9925 16.8175 16.1875 17.5175 15.54C18.1661 14.94 19.1002 14.5654 20.3197 14.4301C20.4859 14.4117 20.615 14.2734 20.615 14.1062V12.57C20.615 12.3933 20.7582 12.25 20.935 12.25H21.2225C21.3992 12.25 21.5425 12.3933 21.5425 12.57V14.0554C21.5425 14.229 21.681 14.3702 21.8542 14.3822C22.4496 14.4233 23.0412 14.5387 23.6075 14.7175C24.1741 14.8965 24.6773 15.1135 25.1061 15.3795C25.2346 15.4593 25.2798 15.622 25.2203 15.761L24.9966 16.2829C24.9194 16.4629 24.7003 16.5315 24.5294 16.4358C24.1158 16.2041 23.6801 16.0075 23.2225 15.855C22.7582 15.7002 22.3052 15.602 21.8544 15.5604C21.6746 15.5438 21.525 15.6895 21.525 15.8702V20.2252C21.525 20.372 21.625 20.4998 21.7672 20.5365C22.5693 20.7435 23.2411 20.9505 23.7825 21.1575C24.36 21.385 24.85 21.735 25.2525 22.2075C25.655 22.68 25.8475 23.2925 25.8475 24.0625C25.8475 25.025 25.48 25.83 24.745 26.495ZM18.55 19.3725C18.9487 19.6531 19.4969 19.8962 20.1946 20.1126C20.3963 20.1751 20.5975 20.0215 20.5975 19.8103V15.9272C20.5975 15.7384 20.4345 15.5897 20.2478 15.618C19.5065 15.7303 18.925 15.963 18.515 16.3275C18.0425 16.765 17.815 17.2725 17.815 17.9025C17.8325 18.55 18.06 19.04 18.55 19.3725ZM23.7475 25.7075C24.2375 25.305 24.5 24.78 24.5 24.15C24.5 23.485 24.2375 22.9775 23.73 22.645C23.2948 22.3599 22.6924 22.1134 21.9226 21.8944C21.7219 21.8373 21.525 21.9904 21.525 22.1992V26.0927C21.525 26.2806 21.6864 26.4289 21.8727 26.4035C22.6809 26.2929 23.3019 26.0609 23.7475 25.7075Z" stroke="#001F3E" stroke-width="0.6" mask="url(#path-3-outside-1_0_1)"/>
</svg>
