<svg xmlns="http://www.w3.org/2000/svg" version="1.1" xmlns:xlink="http://www.w3.org/1999/xlink" xmlns:svgjs="http://svgjs.dev/svgjs" width="128" height="128" viewBox="0 0 128 128"><g transform="matrix(0.8046875,0,0,0.8046875,12.5,12.5)"><svg viewBox="0 0 200 200" data-background-color="#ffffff" preserveAspectRatio="xMidYMid meet" height="128" width="128" xmlns="http://www.w3.org/2000/svg" xmlns:xlink="http://www.w3.org/1999/xlink"><g id="tight-bounds" transform="matrix(1,0,0,1,0,0)"><svg viewBox="0 0 200 200" height="200" width="200"><g><svg></svg></g><g><svg viewBox="0 0 200 200" height="200" width="200"><g><path d="M0 200l0-200 200 0 0 200z" fill="#001f3f" fill-rule="nonzero" stroke="none" stroke-width="1" stroke-linecap="butt" stroke-linejoin="miter" stroke-miterlimit="10" stroke-dasharray="" stroke-dashoffset="0" font-family="none" font-weight="none" font-size="none" text-anchor="none" style="mix-blend-mode: normal" data-fill-palette-color="tertiary"></path></g><g transform="matrix(1,0,0,1,79.42821917808219,69.1)"><svg viewBox="0 0 41.14356164383562 61.8" height="61.8" width="41.14356164383562"><g><svg viewBox="0 0 41.14356164383562 61.8" height="61.8" width="41.14356164383562"><g><svg viewBox="0 0 41.14356164383562 61.8" height="61.8" width="41.14356164383562"><g id="textblocktransform"><svg viewBox="0 0 41.14356164383562 61.8" height="61.8" width="41.14356164383562" id="textblock"><g><svg viewBox="0 0 41.14356164383562 61.8" height="61.8" width="41.14356164383562"><g transform="matrix(1,0,0,1,0,0)"><svg width="41.14356164383562" viewBox="2.1499999999999995 -36 24.3 36.5" height="61.8" data-palette-color="#ffffff"><path d="M20.7 0L19.95-3.2Q17.15 0.5 12.75 0.5L12.75 0.5Q9.75 0.5 7.35-0.95 4.95-2.4 3.55-5.35 2.15-8.3 2.15-12.65L2.15-12.65 2.15-13.2Q2.15-17.35 3.45-20.25 4.75-23.15 6.98-24.6 9.2-26.05 12-26.05L12-26.05Q14.4-26.05 16.23-25.05 18.05-24.05 19.15-22.6L19.15-22.6 19.15-36 26.45-36 26.45 0 20.7 0ZM9.55-10.55Q9.55-7.65 10.9-6.08 12.25-4.5 14.35-4.5L14.35-4.5Q16.45-4.5 17.8-6.08 19.15-7.65 19.15-10.55L19.15-10.55 19.15-14.7Q19.15-17.65 17.8-19.2 16.45-20.75 14.35-20.75L14.35-20.75Q12.25-20.75 10.9-19.2 9.55-17.65 9.55-14.7L9.55-14.7 9.55-10.55Z" opacity="1" transform="matrix(1,0,0,1,0,0)" fill="#ffffff" class="wordmark-text-0" data-fill-palette-color="quaternary" id="text-0"></path></svg></g></svg></g></svg></g></svg></g><g></g></svg></g></svg></g></svg></g><defs></defs></svg><rect width="200" height="200" fill="none" stroke="none" visibility="hidden"></rect></g></svg></g></svg>