<svg width="393" height="340" viewBox="0 0 393 340" fill="none" xmlns="http://www.w3.org/2000/svg">
<g clip-path="url(#clip0_141_4917)">
<path d="M328.282 114.336C276.915 34.3378 209.889 12.6301 162.695 51.2942C124.222 82.8205 132.128 143.04 129.012 152.76C120.082 180.581 86.1559 156.237 52.7698 148.532C28.457 142.931 2.89994 171.994 25.7703 235.853C48.6296 299.712 126.094 334.529 152.488 335.99C178.882 337.461 216.342 325.016 208.392 283.813C205.639 269.537 254.881 241.978 308.649 253.67C353.575 263.435 379.671 194.323 328.304 114.325L328.282 114.336Z" fill="#ECF2F9"/>
<path d="M226.153 219.038C225.69 218.319 225.195 217.327 224.699 216.107" stroke="#2C627A" stroke-width="2" stroke-linecap="round" stroke-linejoin="round"/>
<path d="M222.783 209.765C220.383 199.063 220.174 182.325 230.766 169.51C250.212 145.96 276.848 149.611 285.437 160.977C296.614 175.765 279.359 189.713 268.183 176.724C257.425 164.224 270.187 117.943 324.076 130.617" stroke="#2C627A" stroke-width="2" stroke-linecap="round" stroke-linejoin="round"/>
<path d="M327.335 131.434C328.381 131.717 329.438 132.022 330.506 132.349" stroke="#2C627A" stroke-width="2" stroke-linecap="round" stroke-linejoin="round"/>
<path d="M270.121 330.192C286.236 330.192 299.3 317.263 299.3 301.314C299.3 285.365 286.236 272.436 270.121 272.436C254.005 272.436 240.941 285.365 240.941 301.314C240.941 317.263 254.005 330.192 270.121 330.192Z" fill="#F6F7F9"/>
<path d="M168.267 20.7051C171.307 20.7051 173.772 18.2656 173.772 15.2563C173.772 12.2471 171.307 9.80762 168.267 9.80762C165.226 9.80762 162.761 12.2471 162.761 15.2563C162.761 18.2656 165.226 20.7051 168.267 20.7051Z" fill="#F6F7F9"/>
<path d="M109.357 151.474C117.566 151.474 124.222 144.888 124.222 136.763C124.222 128.638 117.566 122.051 109.357 122.051C101.147 122.051 94.4913 128.638 94.4913 136.763C94.4913 144.888 101.147 151.474 109.357 151.474Z" fill="#F6F7F9"/>
<path d="M385.739 185.257C389.691 185.257 392.896 182.085 392.896 178.173C392.896 174.261 389.691 171.09 385.739 171.09C381.786 171.09 378.581 174.261 378.581 178.173C378.581 182.085 381.786 185.257 385.739 185.257Z" fill="#F6F7F9"/>
<path d="M362.197 245.999C366.983 245.999 370.862 242.159 370.862 237.422C370.862 232.686 366.983 228.846 362.197 228.846C357.411 228.846 353.531 232.686 353.531 237.422C353.531 242.159 357.411 245.999 362.197 245.999Z" fill="#F6F7F9"/>
<path d="M6.4015 241.923C8.83404 241.923 10.806 239.971 10.806 237.564C10.806 235.157 8.83404 233.205 6.4015 233.205C3.96897 233.205 1.99701 235.157 1.99701 237.564C1.99701 239.971 3.96897 241.923 6.4015 241.923Z" stroke="#FFB542" stroke-width="2" stroke-linecap="round" stroke-linejoin="round"/>
<path d="M381.885 286.602C384.317 286.602 386.289 284.651 386.289 282.243C386.289 279.836 384.317 277.885 381.885 277.885C379.452 277.885 377.48 279.836 377.48 282.243C377.48 284.651 379.452 286.602 381.885 286.602Z" stroke="#FFDCA6" stroke-width="2" stroke-linecap="round" stroke-linejoin="round"/>
<path d="M343.345 76.282C345.778 76.282 347.75 74.3305 347.75 71.9231C347.75 69.5157 345.778 67.5641 343.345 67.5641C340.913 67.5641 338.941 69.5157 338.941 71.9231C338.941 74.3305 340.913 76.282 343.345 76.282Z" stroke="#FFB542" stroke-width="2" stroke-linecap="round" stroke-linejoin="round"/>
<path d="M293.795 214.679L289.346 222.308H298.243L293.795 214.679Z" stroke="#FFC56B" stroke-width="2" stroke-linecap="round" stroke-linejoin="round"/>
<path d="M20.7161 120.962L16.2676 128.59H25.1647L20.7161 120.962Z" stroke="#FFDCA6" stroke-width="2" stroke-linecap="round" stroke-linejoin="round"/>
<path d="M87.8847 331.282L83.4362 338.91H92.3332L87.8847 331.282Z" stroke="#FFDCA6" stroke-width="2" stroke-linecap="round" stroke-linejoin="round"/>
<path d="M295.997 33.782L291.548 41.4102H300.446L295.997 33.782Z" stroke="#FFC56B" stroke-width="2" stroke-linecap="round" stroke-linejoin="round"/>
<path d="M90.6375 69.7435C93.9822 69.7435 96.6937 67.0601 96.6937 63.7499C96.6937 60.4398 93.9822 57.7563 90.6375 57.7563C87.2927 57.7563 84.5813 60.4398 84.5813 63.7499C84.5813 67.0601 87.2927 69.7435 90.6375 69.7435Z" fill="#F6F7F9"/>
<path d="M86.7836 53.3975V56.6667" stroke="#F2B24E" stroke-width="2" stroke-linecap="round" stroke-linejoin="round"/>
<path d="M86.7836 63.2051V66.4743" stroke="#F2B24E" stroke-width="2" stroke-linecap="round" stroke-linejoin="round"/>
<path d="M83.4801 59.9359H80.1768" stroke="#F2B24E" stroke-width="2" stroke-linecap="round" stroke-linejoin="round"/>
<path d="M93.3903 59.9359H90.0869" stroke="#F2B24E" stroke-width="2" stroke-linecap="round" stroke-linejoin="round"/>
<path d="M91.188 55.5769L88.9857 57.7564" stroke="#F2B24E" stroke-width="2" stroke-linecap="round" stroke-linejoin="round"/>
<path d="M84.5813 62.1154L82.379 64.2948" stroke="#F2B24E" stroke-width="2" stroke-linecap="round" stroke-linejoin="round"/>
<path d="M84.5813 57.7564L82.379 55.5769" stroke="#F2B24E" stroke-width="2" stroke-linecap="round" stroke-linejoin="round"/>
<path d="M91.188 64.2948L88.9857 62.1154" stroke="#F2B24E" stroke-width="2" stroke-linecap="round" stroke-linejoin="round"/>
<path d="M58.7049 140.577C62.0496 140.577 64.761 137.893 64.761 134.583C64.761 131.273 62.0496 128.59 58.7049 128.59C55.3601 128.59 52.6487 131.273 52.6487 134.583C52.6487 137.893 55.3601 140.577 58.7049 140.577Z" fill="#F6F7F9"/>
<path d="M250.3 71.9231C253.645 71.9231 256.356 69.2397 256.356 65.9295C256.356 62.6193 253.645 59.9359 250.3 59.9359C246.956 59.9359 244.244 62.6193 244.244 65.9295C244.244 69.2397 246.956 71.9231 250.3 71.9231Z" fill="white"/>
<path d="M382.986 167.821V171.09" stroke="#F2B24E" stroke-width="2" stroke-linecap="round" stroke-linejoin="round"/>
<path d="M382.986 177.628V180.897" stroke="#F2B24E" stroke-width="2" stroke-linecap="round" stroke-linejoin="round"/>
<path d="M379.682 174.359H376.379" stroke="#F2B24E" stroke-width="2" stroke-linecap="round" stroke-linejoin="round"/>
<path d="M389.593 174.359H386.289" stroke="#F2B24E" stroke-width="2" stroke-linecap="round" stroke-linejoin="round"/>
<path d="M387.39 170L385.188 172.179" stroke="#F2B24E" stroke-width="2" stroke-linecap="round" stroke-linejoin="round"/>
<path d="M380.784 176.538L378.581 178.718" stroke="#F2B24E" stroke-width="2" stroke-linecap="round" stroke-linejoin="round"/>
<path d="M380.784 172.179L378.581 170" stroke="#F2B24E" stroke-width="2" stroke-linecap="round" stroke-linejoin="round"/>
<path d="M387.39 178.718L385.188 176.538" stroke="#F2B24E" stroke-width="2" stroke-linecap="round" stroke-linejoin="round"/>
<path d="M245.345 55.5769V58.8461" stroke="#F2B24E" stroke-width="2" stroke-linecap="round" stroke-linejoin="round"/>
<path d="M245.345 65.3846V68.6539" stroke="#F2B24E" stroke-width="2" stroke-linecap="round" stroke-linejoin="round"/>
<path d="M242.042 62.1154H238.739" stroke="#F2B24E" stroke-width="2" stroke-linecap="round" stroke-linejoin="round"/>
<path d="M251.952 62.1154H248.649" stroke="#F2B24E" stroke-width="2" stroke-linecap="round" stroke-linejoin="round"/>
<path d="M249.75 57.7563L247.548 59.9358" stroke="#F2B24E" stroke-width="2" stroke-linecap="round" stroke-linejoin="round"/>
<path d="M243.143 64.2948L240.941 66.4743" stroke="#F2B24E" stroke-width="2" stroke-linecap="round" stroke-linejoin="round"/>
<path d="M243.143 59.9358L240.941 57.7563" stroke="#F2B24E" stroke-width="2" stroke-linecap="round" stroke-linejoin="round"/>
<path d="M249.75 66.4743L247.548 64.2948" stroke="#F2B24E" stroke-width="2" stroke-linecap="round" stroke-linejoin="round"/>
<path d="M226.626 1.08972L224.424 3.26921" stroke="#F2B24E" stroke-width="2" stroke-linecap="round" stroke-linejoin="round"/>
<path d="M220.02 7.62817L217.817 9.80766" stroke="#F2B24E" stroke-width="2" stroke-linecap="round" stroke-linejoin="round"/>
<path d="M220.02 3.26921L217.817 1.08972" stroke="#F2B24E" stroke-width="2" stroke-linecap="round" stroke-linejoin="round"/>
<path d="M226.626 9.80766L224.424 7.62817" stroke="#F2B24E" stroke-width="2" stroke-linecap="round" stroke-linejoin="round"/>
<path d="M331.883 175.449L329.68 177.628" stroke="#F2B24E" stroke-width="2" stroke-linecap="round" stroke-linejoin="round"/>
<path d="M325.276 181.987L323.074 184.167" stroke="#F2B24E" stroke-width="2" stroke-linecap="round" stroke-linejoin="round"/>
<path d="M325.276 177.628L323.074 175.449" stroke="#F2B24E" stroke-width="2" stroke-linecap="round" stroke-linejoin="round"/>
<path d="M331.883 184.167L329.68 181.987" stroke="#F2B24E" stroke-width="2" stroke-linecap="round" stroke-linejoin="round"/>
<path d="M256.357 219.038H117.615V316.026H256.357V219.038Z" fill="#F0DFD4"/>
<path d="M256.357 219.038H123.121V316.026H256.357V219.038Z" fill="#D1AD92"/>
<path d="M256.357 304.038V219.038H117.615V316.026H256.357V311.667" stroke="#966947" stroke-width="2" stroke-linecap="round" stroke-linejoin="round"/>
<path d="M117.615 219.038L90.0869 246.282" stroke="#966947" stroke-width="2" stroke-linecap="round" stroke-linejoin="round"/>
<path d="M137.435 226.667L125.323 238.654" stroke="#966947" stroke-width="2" stroke-linecap="round" stroke-linejoin="round"/>
<path d="M152.851 226.667L125.323 253.91" stroke="#966947" stroke-width="2" stroke-linecap="round" stroke-linejoin="round"/>
<path d="M256.357 219.038L283.885 246.282" stroke="#966947" stroke-width="2" stroke-linecap="round" stroke-linejoin="round"/>
<path d="M202.401 248.462L189.188 234.295L175.974 248.462V277.885H202.401V248.462Z" fill="#CC9F7C"/>
<path d="M199.098 248.462L185.885 234.295L172.671 248.462V277.885H199.098V248.462Z" fill="white"/>
<path d="M188.637 237.248L178.177 248.462V277.885H199.098V248.462L188.637 237.248Z" fill="#E5E5E5"/>
<path d="M199.098 248.462L185.885 234.295L172.671 248.462V277.885H199.098V248.462Z" stroke="#79839C" stroke-width="2" stroke-linecap="round" stroke-linejoin="round"/>
<path d="M189.188 246.282C190.404 246.282 191.39 245.306 191.39 244.103C191.39 242.899 190.404 241.923 189.188 241.923C187.972 241.923 186.986 242.899 186.986 244.103C186.986 245.306 187.972 246.282 189.188 246.282Z" fill="white"/>
<path d="M185.885 246.282C187.101 246.282 188.087 245.306 188.087 244.103C188.087 242.899 187.101 241.923 185.885 241.923C184.668 241.923 183.682 242.899 183.682 244.103C183.682 245.306 184.668 246.282 185.885 246.282Z" stroke="#79839C" stroke-width="2" stroke-linecap="round" stroke-linejoin="round"/>
<path d="M185.885 219.038V244.102" stroke="#79839C" stroke-width="2" stroke-linecap="round" stroke-linejoin="round"/>
<path d="M177.076 256.09H189.188" stroke="#79839C" stroke-width="2" stroke-linecap="round" stroke-linejoin="round"/>
<path d="M177.076 262.628H184.784" stroke="#79839C" stroke-width="2" stroke-linecap="round" stroke-linejoin="round"/>
<path d="M177.076 270.256H194.694" stroke="#79839C" stroke-width="2" stroke-linecap="round" stroke-linejoin="round"/>
<path d="M247.548 307.308H231.031" stroke="#966947" stroke-width="2" stroke-linecap="round" stroke-linejoin="round"/>
<path d="M225.525 307.308H220.02" stroke="#966947" stroke-width="2" stroke-linecap="round" stroke-linejoin="round"/>
<path d="M48.2441 316.026H327.929" stroke="#2C627A" stroke-width="2" stroke-linecap="round" stroke-linejoin="round"/>
<path d="M39.4352 316.026H18.5139" stroke="#2C627A" stroke-width="2" stroke-linecap="round" stroke-linejoin="round"/>
<path d="M346.649 316.026H336.739" stroke="#2C627A" stroke-width="2" stroke-linecap="round" stroke-linejoin="round"/>
<path d="M337.025 282.789L351.328 290.962" stroke="#0984FF" stroke-width="2" stroke-linecap="round" stroke-linejoin="round"/>
<path d="M355.138 297.5C357.571 297.5 359.543 295.548 359.543 293.141C359.543 290.734 357.571 288.782 355.138 288.782C352.706 288.782 350.734 290.734 350.734 293.141C350.734 295.548 352.706 297.5 355.138 297.5Z" fill="#82ED9B"/>
<path d="M357.341 289.371C357.164 289.272 356.977 289.196 356.79 289.12C355.909 289.469 355.138 290.09 354.632 290.962C353.421 293.043 354.136 295.713 356.239 296.912C356.416 297.01 356.603 297.086 356.79 297.162C357.671 296.813 358.442 296.192 358.948 295.321C360.159 293.239 359.444 290.569 357.341 289.371Z" fill="#2FCC53"/>
<path d="M355.138 297.5C357.571 297.5 359.543 295.548 359.543 293.141C359.543 290.734 357.571 288.782 355.138 288.782C352.706 288.782 350.734 290.734 350.734 293.141C350.734 295.548 352.706 297.5 355.138 297.5Z" stroke="#018A21" stroke-width="2" stroke-linecap="round" stroke-linejoin="round"/>
<path d="M312.228 282.789L297.924 290.962" stroke="#0984FF" stroke-width="2" stroke-linecap="round" stroke-linejoin="round"/>
<path d="M294.114 297.5C296.547 297.5 298.519 295.548 298.519 293.141C298.519 290.734 296.547 288.782 294.114 288.782C291.682 288.782 289.71 290.734 289.71 293.141C289.71 295.548 291.682 297.5 294.114 297.5Z" fill="#FFF9E3"/>
<path d="M297.924 290.962C297.417 290.09 296.636 289.469 295.766 289.12C295.579 289.196 295.391 289.262 295.215 289.371C293.112 290.569 292.385 293.239 293.608 295.321C294.114 296.192 294.896 296.813 295.766 297.162C295.953 297.086 296.14 297.021 296.316 296.912C298.419 295.713 299.146 293.043 297.924 290.962Z" fill="#FFD071"/>
<path d="M294.114 297.5C296.547 297.5 298.519 295.548 298.519 293.141C298.519 290.734 296.547 288.782 294.114 288.782C291.682 288.782 289.71 290.734 289.71 293.141C289.71 295.548 291.682 297.5 294.114 297.5Z" stroke="#E08C0B" stroke-width="2" stroke-linecap="round" stroke-linejoin="round"/>
<path d="M324.626 261.539V245.192" stroke="#0984FF" stroke-width="2" stroke-linecap="round" stroke-linejoin="round"/>
<path d="M324.626 245.192C327.059 245.192 329.031 243.241 329.031 240.833C329.031 238.426 327.059 236.474 324.626 236.474C322.194 236.474 320.222 238.426 320.222 240.833C320.222 243.241 322.194 245.192 324.626 245.192Z" fill="#FFB891"/>
<path d="M326.278 236.801C324.67 237.444 323.525 239.013 323.525 240.833C323.525 242.653 324.67 244.222 326.278 244.865C327.886 244.222 329.031 242.653 329.031 240.833C329.031 239.013 327.886 237.444 326.278 236.801Z" fill="#FF4D52"/>
<path d="M324.626 245.192C327.059 245.192 329.031 243.241 329.031 240.833C329.031 238.426 327.059 236.474 324.626 236.474C322.194 236.474 320.222 238.426 320.222 240.833C320.222 243.241 322.194 245.192 324.626 245.192Z" stroke="#A12225" stroke-width="2" stroke-linecap="round" stroke-linejoin="round"/>
<path d="M339.392 276.501C338.974 276.119 338.974 275.455 339.392 275.073L342.982 271.815C343.566 271.281 343.301 270.322 342.53 270.148L337.774 269.101C337.212 268.982 336.882 268.404 337.047 267.859L338.5 263.26C338.743 262.508 338.027 261.811 337.267 262.04L332.62 263.478C332.07 263.653 331.497 263.315 331.365 262.759L330.308 258.051C330.132 257.289 329.163 257.027 328.623 257.605L325.331 261.157C324.946 261.571 324.274 261.571 323.888 261.157L320.596 257.605C320.057 257.027 319.088 257.289 318.911 258.051L317.854 262.759C317.733 263.315 317.15 263.642 316.599 263.478L311.952 262.04C311.192 261.8 310.488 262.508 310.719 263.26L312.172 267.859C312.349 268.404 312.007 268.971 311.446 269.101L306.689 270.148C305.918 270.322 305.654 271.281 306.237 271.815L309.827 275.073C310.246 275.455 310.246 276.119 309.827 276.501L306.237 279.759C305.654 280.293 305.918 281.252 306.689 281.426L311.446 282.473C312.007 282.592 312.338 283.17 312.172 283.715L310.719 288.314C310.477 289.066 311.192 289.763 311.952 289.534L316.599 288.096C317.15 287.921 317.722 288.259 317.854 288.815L318.911 293.523C319.088 294.285 320.057 294.547 320.596 293.969L323.888 290.417C324.274 290.003 324.946 290.003 325.331 290.417L328.623 293.969C329.163 294.547 330.132 294.285 330.308 293.523L331.365 288.815C331.486 288.259 332.07 287.932 332.62 288.096L337.267 289.534C338.027 289.774 338.732 289.066 338.5 288.314L337.047 283.715C336.871 283.17 337.212 282.603 337.774 282.473L342.53 281.426C343.301 281.252 343.566 280.293 342.982 279.759L339.392 276.501ZM324.626 284.423C319.759 284.423 315.817 280.522 315.817 275.705C315.817 270.889 319.759 266.987 324.626 266.987C329.493 266.987 333.435 270.889 333.435 275.705C333.435 280.522 329.493 284.423 324.626 284.423Z" fill="#C2E5FF"/>
<path d="M339.392 276.501C338.974 276.119 338.974 275.455 339.392 275.073L342.982 271.815C343.565 271.281 343.301 270.322 342.53 270.148L337.774 269.101C337.212 268.982 336.882 268.404 337.047 267.859L338.5 263.26C338.566 263.064 338.555 262.868 338.5 262.683L335.924 263.478C335.395 263.642 334.867 263.337 334.701 262.835L332.62 263.478C332.07 263.653 331.497 263.315 331.365 262.759L330.308 258.051C330.132 257.289 329.163 257.027 328.623 257.605L325.331 261.157C324.945 261.571 324.274 261.571 323.888 261.157L321.983 259.098L321.158 262.759C321.036 263.315 320.453 263.642 319.902 263.478L317.821 262.835C317.667 263.348 317.127 263.642 316.599 263.478L314.022 262.683C313.967 262.857 313.956 263.053 314.022 263.26L315.476 267.859C315.652 268.404 315.311 268.971 314.749 269.101L309.992 270.148C309.221 270.322 308.957 271.281 309.541 271.815L313.13 275.073C313.549 275.455 313.549 276.119 313.13 276.501L309.541 279.759C308.957 280.293 309.221 281.252 309.992 281.426L314.749 282.473C315.311 282.592 315.641 283.17 315.476 283.715L314.022 288.314C313.956 288.51 313.967 288.706 314.022 288.891L316.599 288.096C317.127 287.932 317.656 288.237 317.821 288.739L319.902 288.096C320.453 287.921 321.025 288.259 321.158 288.815L321.983 292.476L323.888 290.417C324.274 290.003 324.945 290.003 325.331 290.417L328.623 293.969C329.163 294.547 330.132 294.285 330.308 293.523L331.365 288.815C331.486 288.259 332.07 287.932 332.62 288.096L334.701 288.739C334.856 288.226 335.395 287.932 335.924 288.096L338.5 288.891C338.555 288.717 338.566 288.521 338.5 288.314L337.047 283.715C336.871 283.17 337.212 282.603 337.774 282.473L342.53 281.426C343.301 281.252 343.565 280.293 342.982 279.759L339.392 276.501ZM327.93 284.423C327.368 284.423 326.817 284.369 326.278 284.26C325.738 284.358 325.188 284.423 324.626 284.423C319.759 284.423 315.817 280.522 315.817 275.705C315.817 270.889 319.759 266.987 324.626 266.987C325.188 266.987 325.738 267.042 326.278 267.151C326.817 267.053 327.368 266.987 327.93 266.987C332.796 266.987 336.739 270.889 336.739 275.705C336.739 280.522 332.796 284.423 327.93 284.423Z" fill="#5AB9FF"/>
<path d="M339.392 276.501C338.974 276.119 338.974 275.455 339.392 275.073L342.982 271.815C343.566 271.281 343.301 270.322 342.53 270.148L337.774 269.101C337.212 268.982 336.882 268.404 337.047 267.859L338.5 263.26C338.743 262.508 338.027 261.811 337.267 262.04L332.62 263.478C332.07 263.653 331.497 263.315 331.365 262.759L330.308 258.051C330.132 257.289 329.163 257.027 328.623 257.605L325.331 261.157C324.946 261.571 324.274 261.571 323.888 261.157L320.596 257.605C320.057 257.027 319.088 257.289 318.911 258.051L317.854 262.759C317.733 263.315 317.15 263.642 316.599 263.478L311.952 262.04C311.192 261.8 310.488 262.508 310.719 263.26L312.172 267.859C312.349 268.404 312.007 268.971 311.446 269.101L306.689 270.148C305.918 270.322 305.654 271.281 306.237 271.815L309.827 275.073C310.246 275.455 310.246 276.119 309.827 276.501L306.237 279.759C305.654 280.293 305.918 281.252 306.689 281.426L311.446 282.473C312.007 282.592 312.338 283.17 312.172 283.715L310.719 288.314C310.477 289.066 311.192 289.763 311.952 289.534L316.599 288.096C317.15 287.921 317.722 288.259 317.854 288.815L318.911 293.523C319.088 294.285 320.057 294.547 320.596 293.969L323.888 290.417C324.274 290.003 324.946 290.003 325.331 290.417L328.623 293.969C329.163 294.547 330.132 294.285 330.308 293.523L331.365 288.815C331.486 288.259 332.07 287.932 332.62 288.096L337.267 289.534C338.027 289.774 338.732 289.066 338.5 288.314L337.047 283.715C336.871 283.17 337.212 282.603 337.774 282.473L342.53 281.426C343.301 281.252 343.566 280.293 342.982 279.759L339.392 276.501ZM324.626 284.423C319.759 284.423 315.817 280.522 315.817 275.705C315.817 270.889 319.759 266.987 324.626 266.987C329.493 266.987 333.435 270.889 333.435 275.705C333.435 280.522 329.493 284.423 324.626 284.423Z" stroke="#1A6DAB" stroke-width="2" stroke-linecap="round" stroke-linejoin="round"/>
<path d="M184.921 126.391C201.86 126.391 215.591 112.634 215.591 95.6625C215.591 78.6915 201.86 64.9337 184.921 64.9337C167.982 64.9337 154.25 78.6915 154.25 95.6625C154.25 112.634 167.982 126.391 184.921 126.391Z" fill="#FEEDAF"/>
<path d="M186.761 65.0806C171.266 66.617 159.157 79.7235 159.157 95.6624C159.157 111.601 171.266 124.694 186.761 126.244C202.256 124.708 214.365 111.601 214.365 95.6624C214.365 79.7235 202.256 66.6304 186.761 65.0806Z" fill="#FFCD19"/>
<path d="M184.921 126.391C201.86 126.391 215.591 112.634 215.591 95.6625C215.591 78.6915 201.86 64.9337 184.921 64.9337C167.982 64.9337 154.25 78.6915 154.25 95.6625C154.25 112.634 167.982 126.391 184.921 126.391Z" stroke="#E08C0B" stroke-width="2" stroke-linecap="round" stroke-linejoin="round"/>
<path d="M210.257 95.6625C210.257 109.678 198.909 121.047 184.921 121.047C170.932 121.047 159.584 109.678 159.584 95.6625C159.584 81.6475 170.932 70.2778 184.921 70.2778C188.161 70.2778 191.268 70.8924 194.122 72.0013" stroke="#E08C0B" stroke-width="2" stroke-linecap="round" stroke-linejoin="round"/>
<path d="M188.921 76.9579L176.92 95.6624L188.921 114.367L200.923 95.6624L188.921 76.9579Z" fill="#F2B12C"/>
<path d="M184.921 76.9579L172.919 95.6624L184.921 114.367L196.922 95.6624L184.921 76.9579Z" fill="#FFF9E3"/>
<path d="M172.919 95.6624L184.921 76.9579L196.922 95.6624L184.921 102.343L172.919 95.6624Z" stroke="#E08C0B" stroke-width="2" stroke-linecap="round" stroke-linejoin="round"/>
<path d="M196.922 95.6626L184.921 114.367L172.919 95.6626" stroke="#E08C0B" stroke-width="2" stroke-linecap="round" stroke-linejoin="round"/>
<path d="M71.3678 220.128C85.3549 220.128 96.6937 208.907 96.6937 195.064C96.6937 181.222 85.3549 170 71.3678 170C57.3808 170 46.042 181.222 46.042 195.064C46.042 208.907 57.3808 220.128 71.3678 220.128Z" fill="#C9F5FE"/>
<path d="M74.1206 170.153C61.4247 171.515 51.5476 182.14 51.5476 195.064C51.5476 207.988 61.4247 218.624 74.1206 219.976C86.8166 218.613 96.6937 207.988 96.6937 195.064C96.6937 182.14 86.8166 171.504 74.1206 170.153Z" fill="white"/>
<path d="M71.3678 220.128C85.3549 220.128 96.6937 208.907 96.6937 195.064C96.6937 181.222 85.3549 170 71.3678 170C57.3808 170 46.042 181.222 46.042 195.064C46.042 208.907 57.3808 220.128 71.3678 220.128Z" stroke="#0984FF" stroke-width="2" stroke-linecap="round" stroke-linejoin="round"/>
<path d="M74.9464 164.758C79.0206 165.227 82.8525 166.48 86.288 168.354" stroke="#0984FF" stroke-width="2" stroke-linecap="round" stroke-linejoin="round"/>
<path d="M53.4635 212.783L48.7837 217.415" stroke="#0984FF" stroke-width="2" stroke-linecap="round" stroke-linejoin="round"/>
<path d="M51.1253 219.72L46.4536 215.096L34.7744 226.655L39.4461 231.278L51.1253 219.72Z" fill="#D1B9A5"/>
<path d="M48.6473 217.274L39.1716 226.651L41.6398 229.094L51.1155 219.716L48.6473 217.274Z" fill="#A57853"/>
<path d="M51.1253 219.72L46.4536 215.096L34.7744 226.655L39.4461 231.278L51.1253 219.72Z" stroke="#6D533A" stroke-width="2" stroke-linecap="round" stroke-linejoin="round"/>
<path d="M51.5476 208.141L72.469 187.436L85.6824 199.423L116.514 168.91" stroke="#0984FF" stroke-width="2" stroke-linecap="round" stroke-linejoin="round"/>
<path d="M73.5701 225.501C89.5694 224.378 102.199 211.182 102.199 195.064C102.199 194.149 102.155 193.233 102.078 192.34" stroke="#0984FF" stroke-width="2" stroke-linecap="round" stroke-linejoin="round"/>
<path d="M65.3227 165.14C51.1953 167.918 40.5364 180.265 40.5364 195.064C40.5364 199.75 41.6045 204.185 43.5094 208.152" stroke="#0984FF" stroke-width="2" stroke-linecap="round" stroke-linejoin="round"/>
<path d="M107.165 168.91H116.514V178.162" stroke="#0984FF" stroke-width="2" stroke-linecap="round" stroke-linejoin="round"/>
<path d="M59.3876 107.885H45.073C43.2561 107.885 41.7696 106.413 41.7696 104.615C41.7696 102.817 43.2561 101.346 45.073 101.346H47.2752C49.0921 101.346 50.5786 99.8749 50.5786 98.0768C50.5786 96.2788 49.0921 94.8076 47.2752 94.8076H35.1628M68.1966 107.885H73.7022" stroke="#F2B24E" stroke-width="2" stroke-linecap="round" stroke-linejoin="round"/>
<path d="M228.102 151.66L231.031 146.026" stroke="#FFC56B" stroke-width="2" stroke-linecap="round" stroke-linejoin="round"/>
<path d="M211.376 183.818L225.943 155.801" stroke="#FFC56B" stroke-width="2" stroke-linecap="round" stroke-linejoin="round"/>
<path d="M137.435 195.62L120.434 186.117" stroke="#FFC56B" stroke-width="2" stroke-linecap="round" stroke-linejoin="round"/>
<path d="M148.59 201.853L143.018 198.737" stroke="#FFC56B" stroke-width="2" stroke-linecap="round" stroke-linejoin="round"/>
<path d="M151.078 167.472L145.815 157.272M159.226 183.077L165.877 195.958" stroke="#FFC56B" stroke-width="2" stroke-linecap="round" stroke-linejoin="round"/>
<path d="M268.997 120.667L285.272 97.6519" stroke="#FFC56B" stroke-width="2" stroke-linecap="round" stroke-linejoin="round"/>
<path d="M94.7557 105.236L90.0319 98.807" stroke="#FFC56B" stroke-width="2" stroke-linecap="round" stroke-linejoin="round"/>
<path d="M117.329 136L98.3123 110.086" stroke="#FFC56B" stroke-width="2" stroke-linecap="round" stroke-linejoin="round"/>
<path d="M233.883 202.42L253.053 184.167" stroke="#FFC56B" stroke-width="2" stroke-linecap="round" stroke-linejoin="round"/>
<path d="M185.885 170V144.936" stroke="#FFC56B" stroke-width="2" stroke-linecap="round" stroke-linejoin="round"/>
<path d="M166.064 158.013V139.095" stroke="#FFC56B" stroke-width="2" stroke-linecap="round" stroke-linejoin="round"/>
<path d="M205.705 158.013V139.095" stroke="#FFC56B" stroke-width="2" stroke-linecap="round" stroke-linejoin="round"/>
<path d="M155.053 178.718C156.878 178.718 158.356 177.254 158.356 175.449C158.356 173.643 156.878 172.179 155.053 172.179C153.229 172.179 151.75 173.643 151.75 175.449C151.75 177.254 153.229 178.718 155.053 178.718Z" fill="white" stroke="#FFC56B" stroke-width="2" stroke-linecap="round" stroke-linejoin="round"/>
<path d="M197.149 183.088L201.3 171.09" stroke="#FFC56B" stroke-width="2" stroke-linecap="round" stroke-linejoin="round"/>
<path d="M186.986 212.5L191.765 198.682" stroke="#FFC56B" stroke-width="2" stroke-linecap="round" stroke-linejoin="round"/>
<path d="M194.694 193.974C196.518 193.974 197.997 192.511 197.997 190.705C197.997 188.899 196.518 187.436 194.694 187.436C192.869 187.436 191.39 188.899 191.39 190.705C191.39 192.511 192.869 193.974 194.694 193.974Z" fill="white" stroke="#FFC56B" stroke-width="2" stroke-linecap="round" stroke-linejoin="round"/>
<path d="M239.84 135.128C241.056 135.128 242.042 134.152 242.042 132.949C242.042 131.745 241.056 130.769 239.84 130.769C238.623 130.769 237.637 131.745 237.637 132.949C237.637 134.152 238.623 135.128 239.84 135.128Z" fill="white" stroke="#FFC56B" stroke-width="2" stroke-linecap="round" stroke-linejoin="round"/>
<path d="M79.6262 123.141C81.1466 123.141 82.379 121.921 82.379 120.417C82.379 118.912 81.1466 117.692 79.6262 117.692C78.1059 117.692 76.8734 118.912 76.8734 120.417C76.8734 121.921 78.1059 123.141 79.6262 123.141Z" fill="white" stroke="#F2B24E" stroke-width="2" stroke-linecap="round" stroke-linejoin="round"/>
<path d="M124.222 89.3589C126.046 89.3589 127.525 87.8952 127.525 86.0897C127.525 84.2841 126.046 82.8204 124.222 82.8204C122.397 82.8204 120.918 84.2841 120.918 86.0897C120.918 87.8952 122.397 89.3589 124.222 89.3589Z" fill="white" stroke="#F2B24E" stroke-width="2" stroke-linecap="round" stroke-linejoin="round"/>
<path d="M351.053 258.269H384.087" stroke="#F2B24E" stroke-width="2" stroke-linecap="round" stroke-linejoin="round"/>
<path d="M351.053 266.987H364.267" stroke="#F2B24E" stroke-width="2" stroke-linecap="round" stroke-linejoin="round"/>
<path d="M317.546 143.16L330.594 132.426L326.729 116.069L355.942 140.838L317.546 143.16Z" fill="#82ED9B"/>
<path d="M355.942 140.838L333.611 121.91L336.1 132.426L323.492 142.8L355.942 140.838Z" fill="#2FCC53"/>
<path d="M317.546 143.16L330.594 132.426L326.729 116.069L355.942 140.838L317.546 143.16Z" stroke="#018A21" stroke-width="2" stroke-linecap="round" stroke-linejoin="round"/>
<path d="M32.8285 274.615V284.423C32.8285 289.839 37.266 294.231 42.7386 294.231H73.5701" stroke="#2C627A" stroke-width="2" stroke-linecap="round" stroke-linejoin="round"/>
<path d="M75.7723 284.423V274.615C75.7723 269.199 71.3348 264.808 65.8622 264.808H35.0308" stroke="#2C627A" stroke-width="2" stroke-linecap="round" stroke-linejoin="round"/>
<path d="M66.9633 287.692L73.57 294.231L66.9633 300.769" stroke="#2C627A" stroke-width="2" stroke-linecap="round" stroke-linejoin="round"/>
<path d="M41.6375 271.346L35.0308 264.808L41.6375 258.269" stroke="#2C627A" stroke-width="2" stroke-linecap="round" stroke-linejoin="round"/>
</g>
<defs>
<clipPath id="clip0_141_4917">
<rect width="392" height="340" fill="white" transform="translate(0.895874)"/>
</clipPath>
</defs>
</svg>

