<svg width="392" height="336" viewBox="0 0 392 336" fill="none" xmlns="http://www.w3.org/2000/svg">
<g clip-path="url(#clip0_141_4690)">
<path d="M380.089 239.768C401.837 205.74 360.606 170.076 310.34 138.125C276.082 116.342 288.91 86.0513 276.082 63.0976C250.377 17.1146 174.685 4.76948 114.671 40.2697C54.6693 75.7699 27.3855 140.239 18.783 193.622C10.1678 247.004 46.3594 315.16 85.707 295.567C125.042 275.973 151.18 264.886 179.889 288.746C208.611 312.593 312.045 346.269 380.089 239.768Z" fill="#EBF2F9"/>
<path d="M325.827 127.101C339.883 127.101 351.278 115.833 351.278 101.933C351.278 88.0324 339.883 76.764 325.827 76.764C311.77 76.764 300.375 88.0324 300.375 101.933C300.375 115.833 311.77 127.101 325.827 127.101Z" fill="#F6F7F9"/>
<path d="M7.68642 193.798C11.2005 193.798 14.0492 190.981 14.0492 187.506C14.0492 184.031 11.2005 181.214 7.68642 181.214C4.17234 181.214 1.32361 184.031 1.32361 187.506C1.32361 190.981 4.17234 193.798 7.68642 193.798Z" fill="#F6F7F9"/>
<path d="M141.942 330.966C151.43 330.966 159.121 323.36 159.121 313.978C159.121 304.595 151.43 296.989 141.942 296.989C132.454 296.989 124.762 304.595 124.762 313.978C124.762 323.36 132.454 330.966 141.942 330.966Z" fill="#F6F7F9"/>
<path d="M57.9524 21.3932C62.5207 21.3932 66.2241 17.731 66.2241 13.2135C66.2241 8.6959 62.5207 5.03369 57.9524 5.03369C53.3841 5.03369 49.6808 8.6959 49.6808 13.2135C49.6808 17.731 53.3841 21.3932 57.9524 21.3932Z" fill="#F6F7F9"/>
<path d="M297.296 66.2688C304.556 66.2688 310.442 60.4487 310.442 53.2692C310.442 46.0898 304.556 40.2697 297.296 40.2697C290.036 40.2697 284.15 46.0898 284.15 53.2692C284.15 60.4487 290.036 66.2688 297.296 66.2688Z" fill="#F6F7F9"/>
<path d="M385.637 163.595C388.449 163.595 390.727 161.342 390.727 158.562C390.727 155.782 388.449 153.528 385.637 153.528C382.826 153.528 380.547 155.782 380.547 158.562C380.547 161.342 382.826 163.595 385.637 163.595Z" stroke="#FFB542" stroke-width="2" stroke-linecap="round" stroke-linejoin="round"/>
<path d="M45.8632 54.1123C48.6745 54.1123 50.9534 51.8587 50.9534 49.0786C50.9534 46.2986 48.6745 44.0449 45.8632 44.0449C43.0519 44.0449 40.7729 46.2986 40.7729 49.0786C40.7729 51.8587 43.0519 54.1123 45.8632 54.1123Z" stroke="#FFDCA6" stroke-width="2" stroke-linecap="round" stroke-linejoin="round"/>
<path d="M332.19 57.8876C335.001 57.8876 337.28 55.6339 337.28 52.8539C337.28 50.0739 335.001 47.8202 332.19 47.8202C329.378 47.8202 327.099 50.0739 327.099 52.8539C327.099 55.6339 329.378 57.8876 332.19 57.8876Z" stroke="#FFDCA6" stroke-width="2" stroke-linecap="round" stroke-linejoin="round"/>
<path d="M260.926 195.056L255.785 203.865H266.067L260.926 195.056Z" stroke="#FFC56B" stroke-width="2" stroke-linecap="round" stroke-linejoin="round"/>
<path d="M202.388 325.933L197.247 334.742H207.529L202.388 325.933Z" stroke="#FFDCA6" stroke-width="2" stroke-linecap="round" stroke-linejoin="round"/>
<path d="M6.41373 265.528L1.27258 274.337H11.5549L6.41373 265.528Z" stroke="#FFDCA6" stroke-width="2" stroke-linecap="round" stroke-linejoin="round"/>
<path d="M332.19 100.674L327.048 109.483H337.331L332.19 100.674Z" stroke="#FFCD19" stroke-width="2" stroke-linecap="round" stroke-linejoin="round"/>
<path d="M320.1 324.674C323.966 324.674 327.099 321.575 327.099 317.753C327.099 313.93 323.966 310.832 320.1 310.832C316.235 310.832 313.101 313.93 313.101 317.753C313.101 321.575 316.235 324.674 320.1 324.674Z" fill="#F6F7F9"/>
<path d="M315.646 305.798V309.573" stroke="#FFCD19" stroke-width="2" stroke-linecap="round" stroke-linejoin="round"/>
<path d="M315.646 317.124V320.899" stroke="#FFCD19" stroke-width="2" stroke-linecap="round" stroke-linejoin="round"/>
<path d="M311.829 313.348H308.011" stroke="#FFCD19" stroke-width="2" stroke-linecap="round" stroke-linejoin="round"/>
<path d="M323.282 313.348H319.464" stroke="#FFCD19" stroke-width="2" stroke-linecap="round" stroke-linejoin="round"/>
<path d="M320.737 308.315L318.191 310.831" stroke="#FFCD19" stroke-width="2" stroke-linecap="round" stroke-linejoin="round"/>
<path d="M313.101 315.865L310.556 318.382" stroke="#FFCD19" stroke-width="2" stroke-linecap="round" stroke-linejoin="round"/>
<path d="M313.101 310.831L310.556 308.315" stroke="#FFCD19" stroke-width="2" stroke-linecap="round" stroke-linejoin="round"/>
<path d="M320.737 318.382L318.191 315.865" stroke="#FFCD19" stroke-width="2" stroke-linecap="round" stroke-linejoin="round"/>
<path d="M127.943 18.8764C131.809 18.8764 134.943 15.7776 134.943 11.955C134.943 8.13248 131.809 5.03369 127.943 5.03369C124.078 5.03369 120.944 8.13248 120.944 11.955C120.944 15.7776 124.078 18.8764 127.943 18.8764Z" fill="#F6F7F9"/>
<path d="M79.586 224C83.4515 224 86.5851 220.901 86.5851 217.079C86.5851 213.256 83.4515 210.157 79.586 210.157C75.7205 210.157 72.5869 213.256 72.5869 217.079C72.5869 220.901 75.7205 224 79.586 224Z" fill="white"/>
<path d="M54.7711 1.25842V5.0337" stroke="#FFCD19" stroke-width="2" stroke-linecap="round" stroke-linejoin="round"/>
<path d="M54.7711 12.5842V16.3595" stroke="#FFCD19" stroke-width="2" stroke-linecap="round" stroke-linejoin="round"/>
<path d="M50.9534 8.80896H47.1357" stroke="#FFCD19" stroke-width="2" stroke-linecap="round" stroke-linejoin="round"/>
<path d="M62.4064 8.80896H58.5887" stroke="#FFCD19" stroke-width="2" stroke-linecap="round" stroke-linejoin="round"/>
<path d="M59.8613 3.77527L57.3162 6.29212" stroke="#FFCD19" stroke-width="2" stroke-linecap="round" stroke-linejoin="round"/>
<path d="M52.2259 11.3258L49.6808 13.8427" stroke="#FFCD19" stroke-width="2" stroke-linecap="round" stroke-linejoin="round"/>
<path d="M52.2259 6.29212L49.6808 3.77527" stroke="#FFCD19" stroke-width="2" stroke-linecap="round" stroke-linejoin="round"/>
<path d="M59.8613 13.8427L57.3162 11.3258" stroke="#FFCD19" stroke-width="2" stroke-linecap="round" stroke-linejoin="round"/>
<path d="M73.8595 205.124V208.899" stroke="#FFCD19" stroke-width="2" stroke-linecap="round" stroke-linejoin="round"/>
<path d="M73.8595 216.449V220.225" stroke="#FFCD19" stroke-width="2" stroke-linecap="round" stroke-linejoin="round"/>
<path d="M70.0418 212.674H66.2241" stroke="#FFCD19" stroke-width="2" stroke-linecap="round" stroke-linejoin="round"/>
<path d="M81.4949 212.674H77.6772" stroke="#FFCD19" stroke-width="2" stroke-linecap="round" stroke-linejoin="round"/>
<path d="M78.9498 207.64L76.4047 210.157" stroke="#FFCD19" stroke-width="2" stroke-linecap="round" stroke-linejoin="round"/>
<path d="M71.3144 215.191L68.7693 217.708" stroke="#FFCD19" stroke-width="2" stroke-linecap="round" stroke-linejoin="round"/>
<path d="M71.3144 210.157L68.7693 207.64" stroke="#FFCD19" stroke-width="2" stroke-linecap="round" stroke-linejoin="round"/>
<path d="M78.9498 217.708L76.4047 215.191" stroke="#FFCD19" stroke-width="2" stroke-linecap="round" stroke-linejoin="round"/>
<path d="M281.287 11.3258L278.742 13.8427" stroke="#FFCD19" stroke-width="2" stroke-linecap="round" stroke-linejoin="round"/>
<path d="M273.652 18.8763L271.107 21.3932" stroke="#FFCD19" stroke-width="2" stroke-linecap="round" stroke-linejoin="round"/>
<path d="M273.652 13.8427L271.107 11.3258" stroke="#FFCD19" stroke-width="2" stroke-linecap="round" stroke-linejoin="round"/>
<path d="M281.287 21.3932L278.742 18.8763" stroke="#FFCD19" stroke-width="2" stroke-linecap="round" stroke-linejoin="round"/>
<path d="M260.417 250.427L257.872 252.944" stroke="#FFCD19" stroke-width="2" stroke-linecap="round" stroke-linejoin="round"/>
<path d="M252.782 257.978L250.237 260.494" stroke="#FFCD19" stroke-width="2" stroke-linecap="round" stroke-linejoin="round"/>
<path d="M252.782 252.944L250.237 250.427" stroke="#FFCD19" stroke-width="2" stroke-linecap="round" stroke-linejoin="round"/>
<path d="M260.417 260.494L257.872 257.978" stroke="#FFCD19" stroke-width="2" stroke-linecap="round" stroke-linejoin="round"/>
<path d="M132.397 140.944V148.494M136.215 144.719H128.58" stroke="#FFC56B" stroke-width="2" stroke-linecap="round" stroke-linejoin="round"/>
<path d="M99.3107 86.8314V94.382M103.128 90.6067H95.493" stroke="#FFC56B" stroke-width="2" stroke-linecap="round" stroke-linejoin="round"/>
<path d="M143.85 40.2697V47.8202M147.668 44.0449H140.033" stroke="#FFC56B" stroke-width="2" stroke-linecap="round" stroke-linejoin="round"/>
<path d="M276.197 145.978V153.528M280.015 149.753H272.379" stroke="#FFC56B" stroke-width="2" stroke-linecap="round" stroke-linejoin="round"/>
<path d="M100.583 59.146H84.04C81.9402 59.146 80.2223 57.4472 80.2223 55.3708C80.2223 53.2944 81.9402 51.5955 84.04 51.5955H86.5851C88.6848 51.5955 90.4028 49.8966 90.4028 47.8202C90.4028 45.7438 88.6848 44.0449 86.5851 44.0449H72.5869M110.764 59.146H117.127" stroke="#FFCD19" stroke-width="2" stroke-linecap="round" stroke-linejoin="round"/>
<path d="M170.574 157.303V125.843" stroke="#6D533A" stroke-width="2" stroke-linecap="round" stroke-linejoin="round"/>
<path d="M104.401 278.112H236.747C237.447 278.112 238.02 278.679 238.02 279.371V286.921H103.128V279.371C103.128 278.679 103.701 278.112 104.401 278.112Z" fill="white"/>
<path d="M236.747 278.112H110.764C110.064 278.112 109.491 278.679 109.491 279.371V286.921H238.02V279.371C238.02 278.679 237.447 278.112 236.747 278.112Z" fill="#E5E5E5"/>
<path d="M104.401 278.112H236.747C237.447 278.112 238.02 278.679 238.02 279.371V286.921H103.128V279.371C103.128 278.679 103.701 278.112 104.401 278.112Z" stroke="#79839C" stroke-width="2" stroke-linecap="round" stroke-linejoin="round"/>
<path d="M112.036 270.562H229.112C229.812 270.562 230.385 271.128 230.385 271.82V278.112H110.764V271.82C110.764 271.128 111.336 270.562 112.036 270.562Z" fill="white"/>
<path d="M229.112 270.562H118.399C117.699 270.562 117.127 271.128 117.127 271.82V278.112H230.385V271.82C230.385 271.128 229.812 270.562 229.112 270.562Z" fill="#E5E5E5"/>
<path d="M112.036 270.562H229.112C229.812 270.562 230.385 271.128 230.385 271.82V278.112H110.764V271.82C110.764 271.128 111.336 270.562 112.036 270.562Z" stroke="#79839C" stroke-width="2" stroke-linecap="round" stroke-linejoin="round"/>
<path d="M234.202 210.157H106.946C106.243 210.157 105.674 210.721 105.674 211.416V216.449C105.674 217.144 106.243 217.708 106.946 217.708H234.202C234.905 217.708 235.475 217.144 235.475 216.449V211.416C235.475 210.721 234.905 210.157 234.202 210.157Z" fill="white"/>
<path d="M234.202 210.157H113.309C112.606 210.157 112.036 210.721 112.036 211.416V216.449C112.036 217.144 112.606 217.708 113.309 217.708H234.202C234.905 217.708 235.475 217.144 235.475 216.449V211.416C235.475 210.721 234.905 210.157 234.202 210.157Z" fill="#E5E5E5"/>
<path d="M234.202 210.157H106.946C106.243 210.157 105.674 210.721 105.674 211.416V216.449C105.674 217.144 106.243 217.708 106.946 217.708H234.202C234.905 217.708 235.475 217.144 235.475 216.449V211.416C235.475 210.721 234.905 210.157 234.202 210.157Z" stroke="#79839C" stroke-width="2" stroke-linecap="round" stroke-linejoin="round"/>
<path d="M230.385 210.157H110.764L170.574 157.303L230.385 210.157Z" fill="white"/>
<path d="M117.127 210.157H230.385L173.756 160.11L117.127 210.157Z" fill="#E5E5E5"/>
<path d="M127.218 210.057L173.756 168.919L170.574 166.112L120.855 210.057L220.42 210.157L220.408 210.145L127.218 210.057Z" fill="#C4C4C4"/>
<path d="M230.385 210.157H110.764L170.574 157.303L230.385 210.157Z" stroke="#79839C" stroke-width="2" stroke-linecap="round" stroke-linejoin="round"/>
<path d="M141.242 192.036L170.574 166.112L220.421 210.157" stroke="#79839C" stroke-width="2" stroke-linecap="round" stroke-linejoin="round"/>
<path d="M120.855 210.057L134.93 197.611" stroke="#79839C" stroke-width="2" stroke-linecap="round" stroke-linejoin="round"/>
<path d="M133.67 225.258H120.944V263.011H133.67V225.258Z" fill="white"/>
<path d="M133.67 225.258H126.035V263.011H133.67V225.258Z" fill="#E5E5E5"/>
<path d="M133.67 225.258H120.944V263.011H133.67V225.258Z" stroke="#79839C" stroke-width="2" stroke-linecap="round" stroke-linejoin="round"/>
<path d="M120.944 263.011H133.67C135.07 263.011 136.215 264.144 136.215 265.528V270.562H118.399V265.528C118.399 264.144 119.544 263.011 120.944 263.011Z" fill="white"/>
<path d="M133.67 263.011H126.035C124.635 263.011 123.49 264.144 123.49 265.528V270.562H136.215V265.528C136.215 264.144 135.07 263.011 133.67 263.011Z" fill="#E5E5E5"/>
<path d="M120.944 263.011H133.67C135.07 263.011 136.215 264.144 136.215 265.528V270.562H118.399V265.528C118.399 264.144 119.544 263.011 120.944 263.011Z" stroke="#79839C" stroke-width="2" stroke-linecap="round" stroke-linejoin="round"/>
<path d="M118.399 217.708H136.215V222.742C136.215 224.126 135.07 225.258 133.67 225.258H120.944C119.544 225.258 118.399 224.126 118.399 222.742V217.708Z" fill="white"/>
<path d="M133.67 225.258H126.035C124.635 225.258 123.49 224.126 123.49 222.742V217.708H136.215V222.742C136.215 224.126 135.07 225.258 133.67 225.258Z" fill="#E5E5E5"/>
<path d="M118.399 217.708H136.215V222.742C136.215 224.126 135.07 225.258 133.67 225.258H120.944C119.544 225.258 118.399 224.126 118.399 222.742V217.708Z" stroke="#79839C" stroke-width="2" stroke-linecap="round" stroke-linejoin="round"/>
<path d="M176.937 225.258H164.211V263.011H176.937V225.258Z" fill="white"/>
<path d="M176.937 225.258H169.302V263.011H176.937V225.258Z" fill="#E5E5E5"/>
<path d="M176.937 225.258H164.211V263.011H176.937V225.258Z" stroke="#79839C" stroke-width="2" stroke-linecap="round" stroke-linejoin="round"/>
<path d="M164.211 263.011H176.937C178.337 263.011 179.482 264.144 179.482 265.528V270.562H161.666V265.528C161.666 264.144 162.812 263.011 164.211 263.011Z" fill="white"/>
<path d="M176.937 263.011H169.302C167.902 263.011 166.757 264.144 166.757 265.528V270.562H179.482V265.528C179.482 264.144 178.337 263.011 176.937 263.011Z" fill="#E5E5E5"/>
<path d="M164.211 263.011H176.937C178.337 263.011 179.482 264.144 179.482 265.528V270.562H161.666V265.528C161.666 264.144 162.812 263.011 164.211 263.011Z" stroke="#79839C" stroke-width="2" stroke-linecap="round" stroke-linejoin="round"/>
<path d="M161.666 217.708H179.482V222.742C179.482 224.126 178.337 225.258 176.937 225.258H164.211C162.812 225.258 161.666 224.126 161.666 222.742V217.708Z" fill="white"/>
<path d="M176.937 225.258H169.302C167.902 225.258 166.757 224.126 166.757 222.742V217.708H179.482V222.742C179.482 224.126 178.337 225.258 176.937 225.258Z" fill="#E5E5E5"/>
<path d="M161.666 217.708H179.482V222.742C179.482 224.126 178.337 225.258 176.937 225.258H164.211C162.812 225.258 161.666 224.126 161.666 222.742V217.708Z" stroke="#79839C" stroke-width="2" stroke-linecap="round" stroke-linejoin="round"/>
<path d="M220.204 225.258H207.479V263.011H220.204V225.258Z" fill="white"/>
<path d="M220.204 225.258H212.569V263.011H220.204V225.258Z" fill="#E5E5E5"/>
<path d="M220.204 225.258H207.479V263.011H220.204V225.258Z" stroke="#79839C" stroke-width="2" stroke-linecap="round" stroke-linejoin="round"/>
<path d="M207.478 263.011H220.204C221.604 263.011 222.749 264.144 222.749 265.528V270.562H204.933V265.528C204.933 264.144 206.079 263.011 207.478 263.011Z" fill="white"/>
<path d="M220.204 263.011H212.569C211.169 263.011 210.024 264.144 210.024 265.528V270.562H222.749V265.528C222.749 264.144 221.604 263.011 220.204 263.011Z" fill="#E5E5E5"/>
<path d="M207.478 263.011H220.204C221.604 263.011 222.749 264.144 222.749 265.528V270.562H204.933V265.528C204.933 264.144 206.079 263.011 207.478 263.011Z" stroke="#79839C" stroke-width="2" stroke-linecap="round" stroke-linejoin="round"/>
<path d="M204.933 217.708H222.749V222.742C222.749 224.126 221.604 225.258 220.204 225.258H207.478C206.079 225.258 204.933 224.126 204.933 222.742V217.708Z" fill="white"/>
<path d="M220.204 225.258H212.569C211.169 225.258 210.024 224.126 210.024 222.742V217.708H222.749V222.742C222.749 224.126 221.604 225.258 220.204 225.258Z" fill="#E5E5E5"/>
<path d="M204.933 217.708H222.749V222.742C222.749 224.126 221.604 225.258 220.204 225.258H207.478C206.079 225.258 204.933 224.126 204.933 222.742V217.708Z" stroke="#79839C" stroke-width="2" stroke-linecap="round" stroke-linejoin="round"/>
<path d="M161.666 190.023L170.574 176.18L179.482 190.023L170.574 193.798L161.666 190.023Z" stroke="#79839C" stroke-width="2" stroke-linecap="round" stroke-linejoin="round"/>
<path d="M179.482 190.022L170.574 203.865L161.666 190.022" stroke="#79839C" stroke-width="2" stroke-linecap="round" stroke-linejoin="round"/>
<path d="M206.206 152.27H183.3V137.169H206.206L198.571 144.719L206.206 152.27Z" fill="#E8252B"/>
<path d="M206.206 152.27H183.3V137.169H206.206L198.571 144.719L206.206 152.27Z" stroke="#A12225" stroke-width="2" stroke-linecap="round" stroke-linejoin="round"/>
<path d="M193.48 130.876H170.574V145.978H193.48V130.876Z" fill="#FFB891"/>
<path d="M193.48 130.876H175.664V145.978H193.48V130.876Z" fill="#FF4D52"/>
<path d="M193.48 130.876H170.574V145.978H193.48V130.876Z" stroke="#A12225" stroke-width="2" stroke-linecap="round" stroke-linejoin="round"/>
<path d="M82.7675 286.921H350.005" stroke="#2C627A" stroke-width="2" stroke-linecap="round" stroke-linejoin="round"/>
<path d="M72.5869 286.921H50.9534" stroke="#2C627A" stroke-width="2" stroke-linecap="round" stroke-linejoin="round"/>
<path d="M380.547 286.921H360.186" stroke="#2C627A" stroke-width="2" stroke-linecap="round" stroke-linejoin="round"/>
<path d="M40.7729 286.921H31.865" stroke="#2C627A" stroke-width="2" stroke-linecap="round" stroke-linejoin="round"/>
<path d="M334.735 212.674C353.711 212.674 369.094 197.462 369.094 178.697C369.094 159.931 353.711 144.719 334.735 144.719C315.759 144.719 300.375 159.931 300.375 178.697C300.375 197.462 315.759 212.674 334.735 212.674Z" fill="#FFF9E3"/>
<path d="M337.916 144.87C320.431 146.456 306.738 160.991 306.738 178.697C306.738 196.403 320.431 210.938 337.916 212.523C355.401 210.938 369.094 196.403 369.094 178.697C369.094 160.991 355.401 146.456 337.916 144.87Z" fill="#FFCD19"/>
<path d="M315.621 206.936C306.433 200.832 300.375 190.463 300.375 178.697C300.375 159.933 315.761 144.719 334.735 144.719C353.709 144.719 369.094 159.933 369.094 178.697C369.094 190.4 363.113 200.732 354.001 206.835" stroke="#E08C0B" stroke-width="2" stroke-linecap="round" stroke-linejoin="round"/>
<path d="M350.324 201.701C357.806 196.73 362.731 188.286 362.731 178.697C362.731 163.407 350.196 151.011 334.735 151.011C319.273 151.011 306.738 163.407 306.738 178.697C306.738 188.286 311.663 196.73 319.158 201.701" stroke="#E08C0B" stroke-width="2" stroke-linecap="round" stroke-linejoin="round"/>
<path d="M334.735 144.719V151.011" stroke="#E08C0B" stroke-width="2" stroke-linecap="round" stroke-linejoin="round"/>
<path d="M369.094 178.697H362.731" stroke="#E08C0B" stroke-width="2" stroke-linecap="round" stroke-linejoin="round"/>
<path d="M306.738 178.697H300.375" stroke="#E08C0B" stroke-width="2" stroke-linecap="round" stroke-linejoin="round"/>
<path d="M351.914 149.275L348.733 154.724" stroke="#E08C0B" stroke-width="2" stroke-linecap="round" stroke-linejoin="round"/>
<path d="M364.487 195.685L358.977 192.539" stroke="#E08C0B" stroke-width="2" stroke-linecap="round" stroke-linejoin="round"/>
<path d="M310.492 164.854L304.982 161.708" stroke="#E08C0B" stroke-width="2" stroke-linecap="round" stroke-linejoin="round"/>
<path d="M317.555 149.275L320.737 154.724" stroke="#E08C0B" stroke-width="2" stroke-linecap="round" stroke-linejoin="round"/>
<path d="M364.487 161.708L358.977 164.854" stroke="#E08C0B" stroke-width="2" stroke-linecap="round" stroke-linejoin="round"/>
<path d="M310.492 192.539L304.982 195.685" stroke="#E08C0B" stroke-width="2" stroke-linecap="round" stroke-linejoin="round"/>
<path d="M308.011 237.843H290.195L281.287 255.461H316.919L308.011 237.843Z" fill="#FFF9E3"/>
<path d="M343.643 237.843H325.827L316.919 255.461H352.551L343.643 237.843Z" fill="#FFF9E3"/>
<path d="M325.827 220.225H308.011L299.103 237.843H334.735L325.827 220.225Z" fill="#FFF9E3"/>
<path d="M343.643 202.607H325.827L316.919 220.225H352.551L343.643 202.607Z" fill="#FFF9E3"/>
<path d="M361.459 220.225H343.643L334.735 237.843H370.366L361.459 220.225Z" fill="white"/>
<path d="M379.274 237.843H361.458L352.551 255.461H388.182L379.274 237.843Z" fill="#FFF9E3" stroke="#E08C0B" stroke-miterlimit="10"/>
<path d="M367.821 237.843L358.913 255.461H388.182L379.274 237.843H367.821Z" fill="#FFCD19"/>
<path d="M350.005 220.225L341.098 237.843H370.366L361.459 220.225H350.005Z" fill="#FFCD19"/>
<path d="M314.374 220.225L305.466 237.843H334.735L325.827 220.225H314.374Z" fill="#FFCD19"/>
<path d="M332.19 202.607L323.282 220.225H352.551L343.643 202.607H332.19Z" fill="#FFCD19"/>
<path d="M296.558 237.843L287.65 255.461H316.919L308.011 237.843H296.558Z" fill="#FFCD19"/>
<path d="M332.19 237.843L323.282 255.461H352.551L343.643 237.843H332.19Z" fill="#FFCD19"/>
<path d="M308.011 237.843H290.195L281.287 255.461H316.919L308.011 237.843Z" stroke="#E08C0B" stroke-width="2" stroke-linecap="round" stroke-linejoin="round"/>
<path d="M343.643 237.843H325.827L316.919 255.461H352.551L343.643 237.843Z" stroke="#E08C0B" stroke-width="2" stroke-linecap="round" stroke-linejoin="round"/>
<path d="M325.827 220.225H308.011L299.103 237.843H334.735L325.827 220.225Z" stroke="#E08C0B" stroke-width="2" stroke-linecap="round" stroke-linejoin="round"/>
<path d="M343.643 202.607H325.827L316.919 220.225H352.551L343.643 202.607Z" stroke="#E08C0B" stroke-width="2" stroke-linecap="round" stroke-linejoin="round"/>
<path d="M361.459 220.225H343.643L334.735 237.843H370.366L361.459 220.225Z" stroke="#E08C0B" stroke-width="2" stroke-linecap="round" stroke-linejoin="round"/>
<path d="M379.274 237.843H361.458L352.551 255.461H388.182L379.274 237.843Z" stroke="#E08C0B" stroke-width="2" stroke-linecap="round" stroke-linejoin="round"/>
<path d="M304.193 213.933L292.74 202.607" stroke="#FFC56B" stroke-width="2" stroke-linecap="round" stroke-linejoin="round"/>
<path d="M365.276 213.933L376.729 202.607" stroke="#FFC56B" stroke-width="2" stroke-linecap="round" stroke-linejoin="round"/>
<path d="M309.283 251.685H295.285" stroke="#E08C0B" stroke-width="2" stroke-linecap="round" stroke-linejoin="round"/>
<path d="M344.915 216.449H330.917" stroke="#E08C0B" stroke-width="2" stroke-linecap="round" stroke-linejoin="round"/>
<path d="M361.459 232.809L357.221 224.415" stroke="#E08C0B" stroke-width="2" stroke-linecap="round" stroke-linejoin="round"/>
<path d="M45.6304 152.43C64.5257 152.43 79.8434 137.248 79.8434 118.52C79.8434 99.7925 64.5257 84.6107 45.6304 84.6107C26.7351 84.6107 11.4174 99.7925 11.4174 118.52C11.4174 137.248 26.7351 152.43 45.6304 152.43Z" fill="#FEEDAF"/>
<path d="M47.6831 84.7728C30.3982 86.4683 16.8915 100.931 16.8915 118.52C16.8915 136.109 30.3982 150.557 47.6831 152.267C64.9681 150.572 78.4748 136.109 78.4748 118.52C78.4748 100.931 64.9681 86.483 47.6831 84.7728Z" fill="#FFCD19"/>
<path d="M45.6304 152.43C64.5257 152.43 79.8434 137.248 79.8434 118.52C79.8434 99.7925 64.5257 84.6107 45.6304 84.6107C26.7351 84.6107 11.4174 99.7925 11.4174 118.52C11.4174 137.248 26.7351 152.43 45.6304 152.43Z" stroke="#E08C0B" stroke-width="2" stroke-linecap="round" stroke-linejoin="round"/>
<path d="M73.8933 118.52C73.8933 133.986 61.2345 146.532 45.6304 146.532C30.0263 146.532 17.3675 133.986 17.3675 118.52C17.3675 103.055 30.0263 90.5081 45.6304 90.5081C49.245 90.5081 52.711 91.1862 55.8943 92.4099" stroke="#E08C0B" stroke-width="2" stroke-linecap="round" stroke-linejoin="round"/>
<path d="M50.093 97.8796L36.7053 118.52L50.093 139.161L63.4807 118.52L50.093 97.8796Z" fill="#F2B12C"/>
<path d="M45.6304 97.8796L32.2427 118.52L45.6304 139.161L59.018 118.52L45.6304 97.8796Z" fill="#FFF9E3"/>
<path d="M32.2427 118.52L45.6304 97.8796L59.018 118.52L45.6304 125.892L32.2427 118.52Z" stroke="#E08C0B" stroke-width="2" stroke-linecap="round" stroke-linejoin="round"/>
<path d="M59.018 118.52L45.6304 139.161L32.2427 118.52" stroke="#E08C0B" stroke-width="2" stroke-linecap="round" stroke-linejoin="round"/>
<path d="M25.5022 143.461L12.7766 163.596H34.4101L25.5022 143.461Z" fill="white"/>
<path d="M17.8668 163.596H34.4101L27.6019 148.192L17.8668 163.596Z" fill="#B5DAFF"/>
<path d="M66.2241 143.461L78.9497 163.596H57.3162L66.2241 143.461Z" fill="#B5DAFF"/>
<path d="M62.4065 163.596H78.9498L69.2147 148.192L62.4065 163.596Z" fill="#B5DAFF"/>
<path d="M45.8631 143.461L34.4101 163.596L25.5021 143.461H45.8631Z" fill="#B5DAFF"/>
<path d="M45.8631 143.461H30.5924L37.2734 158.562L45.8631 143.461Z" fill="#B5DAFF"/>
<path d="M45.8632 143.461L57.3162 163.596L66.2241 143.461H45.8632Z" fill="#B5DAFF"/>
<path d="M66.2241 143.461H50.9534L59.5432 158.562L66.2241 143.461Z" fill="#B5DAFF"/>
<path d="M12.7766 163.595L45.8632 200.09L34.4101 163.595H12.7766Z" fill="white"/>
<path d="M34.4101 163.595H17.8668L43.1653 191.507L34.4101 163.595Z" fill="#B5DAFF"/>
<path d="M78.9498 163.595L45.8632 200.09L57.3162 163.595H78.9498Z" fill="#B5DAFF"/>
<path d="M78.9498 163.595H62.4065L53.6512 191.507L78.9498 163.595Z" fill="#B5DAFF"/>
<path d="M34.4102 163.595L45.8632 200.09L57.3163 163.595H34.4102Z" fill="#B5DAFF"/>
<path d="M57.3162 163.595H39.5004L48.4083 191.986L57.3162 163.595Z" fill="#B5DAFF"/>
<path d="M57.3163 163.596H34.4102L45.8632 143.461L57.3163 163.596Z" fill="#B5DAFF"/>
<path d="M39.5004 163.596H57.3162L48.4083 147.941L39.5004 163.596Z" fill="#B5DAFF"/>
<path d="M25.5022 143.461L12.7766 163.596H34.4101L25.5022 143.461Z" stroke="#0984FF" stroke-width="2" stroke-linecap="round" stroke-linejoin="round"/>
<path d="M66.2241 143.461L78.9497 163.596H57.3162L66.2241 143.461Z" stroke="#0984FF" stroke-width="2" stroke-linecap="round" stroke-linejoin="round"/>
<path d="M45.8631 143.461L34.4101 163.596L25.5021 143.461H45.8631Z" stroke="#0984FF" stroke-width="2" stroke-linecap="round" stroke-linejoin="round"/>
<path d="M45.8632 143.461L57.3162 163.596L66.2241 143.461H45.8632Z" stroke="#0984FF" stroke-width="2" stroke-linecap="round" stroke-linejoin="round"/>
<path d="M12.7766 163.595L45.8632 200.09L34.4101 163.595H12.7766Z" stroke="#0984FF" stroke-width="2" stroke-linecap="round" stroke-linejoin="round"/>
<path d="M78.9498 163.595L45.8632 200.09L57.3162 163.595H78.9498Z" stroke="#0984FF" stroke-width="2" stroke-linecap="round" stroke-linejoin="round"/>
<path d="M34.4102 163.595L45.8632 200.09L57.3163 163.595H34.4102Z" stroke="#0984FF" stroke-width="2" stroke-linecap="round" stroke-linejoin="round"/>
<path d="M57.3163 163.596H34.4102L45.8632 143.461L57.3163 163.596Z" stroke="#0984FF" stroke-width="2" stroke-linecap="round" stroke-linejoin="round"/>
<path d="M12.7767 149.753L1.32361 138.427" stroke="#0984FF" stroke-width="2" stroke-linecap="round" stroke-linejoin="round"/>
<path d="M77.6772 149.753L89.1303 138.427" stroke="#0984FF" stroke-width="2" stroke-linecap="round" stroke-linejoin="round"/>
<path d="M255.836 227.775H286.377L278.742 220.225" stroke="#2C627A" stroke-width="2" stroke-linecap="round" stroke-linejoin="round"/>
<path d="M286.377 227.775L278.742 235.326" stroke="#2C627A" stroke-width="2" stroke-linecap="round" stroke-linejoin="round"/>
<path d="M240.565 227.775H248.201" stroke="#2C627A" stroke-width="2" stroke-linecap="round" stroke-linejoin="round"/>
<path d="M84.04 252.944H81.5712C61.8465 252.944 45.8632 237.138 45.8632 217.632V211.416" stroke="#2C627A" stroke-width="2" stroke-linecap="round" stroke-linejoin="round"/>
<path d="M91.6754 252.944H99.3108" stroke="#2C627A" stroke-width="2" stroke-linecap="round" stroke-linejoin="round"/>
<path d="M38.2278 218.966L45.8632 211.416L53.4985 218.966" stroke="#2C627A" stroke-width="2" stroke-linecap="round" stroke-linejoin="round"/>
<path d="M245.655 161.079H212.569" stroke="#2C627A" stroke-width="2" stroke-linecap="round" stroke-linejoin="round"/>
<path d="M245.655 171.146H232.93" stroke="#2C627A" stroke-width="2" stroke-linecap="round" stroke-linejoin="round"/>
<path d="M200.441 68.2445C201.281 66.8476 201.765 65.2242 201.765 63.4876C201.765 58.3155 197.527 54.1123 192.284 54.1123C190.044 54.1123 187.996 54.88 186.379 56.1636C184.191 51.2683 179.253 47.8454 173.501 47.8202H173.476H173.45C165.777 47.8202 159.541 53.8606 159.312 61.3986C158.701 61.3105 158.078 61.2476 157.429 61.2476C149.933 61.2476 143.85 67.2629 143.85 74.675C143.85 82.0872 149.933 88.1024 157.429 88.1024H200.289C206.6 88.1024 211.716 83.0436 211.716 76.8018L200.441 68.257V68.2445Z" fill="white"/>
<path d="M173.501 47.8202C165.866 47.8202 159.668 53.8984 159.579 61.4238C158.879 61.3105 158.167 61.235 157.429 61.235C149.933 61.235 143.85 67.2503 143.85 74.6624C143.85 82.0746 149.933 88.0899 157.429 88.0899H200.289C206.6 88.0899 211.716 83.031 211.716 76.7892" stroke="#79839C" stroke-width="2" stroke-linecap="round" stroke-linejoin="round"/>
<path d="M168.182 66.4827C165.7 63.2989 161.806 61.2477 157.429 61.2477" stroke="#79839C" stroke-width="2" stroke-linecap="round" stroke-linejoin="round"/>
<path d="M206.061 95.748C217.839 95.748 227.387 86.2849 227.387 74.6114C227.387 62.938 217.839 53.4749 206.061 53.4749C194.283 53.4749 184.736 62.938 184.736 74.6114C184.736 86.2849 194.283 95.748 206.061 95.748Z" fill="#FEEDAF"/>
<path d="M207.341 53.5759C196.567 54.6328 188.148 63.648 188.148 74.6114C188.148 85.5749 196.567 94.5809 207.341 95.6469C218.115 94.5901 226.534 85.5749 226.534 74.6114C226.534 63.648 218.115 54.6419 207.341 53.5759Z" fill="#FFCD19"/>
<path d="M206.061 95.748C217.839 95.748 227.387 86.2849 227.387 74.6114C227.387 62.938 217.839 53.4749 206.061 53.4749C194.283 53.4749 184.736 62.938 184.736 74.6114C184.736 86.2849 194.283 95.748 206.061 95.748Z" stroke="#E08C0B" stroke-width="2" stroke-linecap="round" stroke-linejoin="round"/>
<path d="M223.678 74.6115C223.678 84.2517 215.788 92.0722 206.061 92.0722C196.335 92.0722 188.444 84.2517 188.444 74.6115C188.444 64.9714 196.335 57.1509 206.061 57.1509C208.315 57.1509 210.475 57.5736 212.459 58.3364" stroke="#E08C0B" stroke-width="2" stroke-linecap="round" stroke-linejoin="round"/>
<path d="M208.843 61.7457L200.498 74.6115L208.843 87.4772L217.188 74.6115L208.843 61.7457Z" fill="#F2B12C"/>
<path d="M206.061 61.7457L197.717 74.6115L206.061 87.4772L214.406 74.6115L206.061 61.7457Z" fill="#FFF9E3"/>
<path d="M197.717 74.6115L206.061 61.7457L214.406 74.6115L206.061 79.2064L197.717 74.6115Z" stroke="#E08C0B" stroke-width="2" stroke-linecap="round" stroke-linejoin="round"/>
<path d="M214.406 74.6115L206.061 87.4772L197.717 74.6115" stroke="#E08C0B" stroke-width="2" stroke-linecap="round" stroke-linejoin="round"/>
<path d="M189.115 56.0755L176.517 43.6296" stroke="#FFC56B" stroke-width="2" stroke-linecap="round" stroke-linejoin="round"/>
<path d="M223.309 56.0755L235.908 43.6296" stroke="#FFC56B" stroke-width="2" stroke-linecap="round" stroke-linejoin="round"/>
<path d="M206.206 49.0787V31.4607" stroke="#FFC56B" stroke-width="2" stroke-linecap="round" stroke-linejoin="round"/>
<path d="M164.211 72.9888H182.027" stroke="#FFC56B" stroke-width="2" stroke-linecap="round" stroke-linejoin="round"/>
<path d="M215.458 50.9034L219.352 41.6036" stroke="#FFC56B" stroke-width="2" stroke-linecap="round" stroke-linejoin="round"/>
<path d="M174.468 59.9893L183.872 63.84" stroke="#FFC56B" stroke-width="2" stroke-linecap="round" stroke-linejoin="round"/>
<path d="M196.954 50.9034L193.06 41.6036" stroke="#FFC56B" stroke-width="2" stroke-linecap="round" stroke-linejoin="round"/>
<path d="M228.552 63.84L237.956 59.9893" stroke="#FFC56B" stroke-width="2" stroke-linecap="round" stroke-linejoin="round"/>
<path d="M160.916 99.3151C162.71 99.3151 164.288 100.221 165.204 101.605C165.306 101.53 165.42 101.454 165.522 101.391C165.051 100.448 164.771 99.3906 164.771 98.258C164.771 94.3569 167.966 91.1856 171.923 91.1856C172.229 91.1856 172.521 91.2108 172.814 91.2486C172.814 91.173 172.814 91.1101 172.814 91.0346C172.814 83.9119 178.655 78.1357 185.858 78.1357C192.679 78.1357 198.265 83.3079 198.838 89.902C200.238 89.1847 201.828 88.7695 203.521 88.7695C207.25 88.7695 210.507 90.7703 212.276 93.7402C213.345 93.2494 214.516 92.9726 215.776 92.9726C220.382 92.9726 224.124 96.6724 224.124 101.228C224.124 105.783 220.382 109.483 215.776 109.483H160.928C158.09 109.483 155.787 107.205 155.787 104.399C155.787 101.593 158.09 99.3151 160.928 99.3151H160.916Z" fill="white"/>
<path d="M160.916 99.3151C162.71 99.3151 164.288 100.221 165.204 101.605C165.306 101.53 165.42 101.454 165.522 101.391C165.051 100.448 164.771 99.3906 164.771 98.258C164.771 94.3569 167.966 91.1856 171.923 91.1856C172.229 91.1856 172.521 91.2108 172.814 91.2486C172.814 91.173 172.814 91.1101 172.814 91.0346C172.814 83.9119 178.655 78.1357 185.858 78.1357C192.679 78.1357 198.265 83.3079 198.838 89.902C200.238 89.1847 201.828 88.7695 203.521 88.7695C207.25 88.7695 210.507 90.7703 212.276 93.7402C213.345 93.2494 214.516 92.9726 215.776 92.9726C220.382 92.9726 224.124 96.6724 224.124 101.228C224.124 105.783 220.382 109.483 215.776 109.483H160.928C158.09 109.483 155.787 107.205 155.787 104.399C155.787 101.593 158.09 99.3151 160.928 99.3151H160.916Z" stroke="#79839C" stroke-width="2" stroke-linecap="round" stroke-linejoin="round"/>
<path d="M171.936 91.1857C175.092 91.1857 177.764 93.2117 178.719 96.0054" stroke="#79839C" stroke-width="2" stroke-linecap="round" stroke-linejoin="round"/>
<path d="M196.14 91.9029C197.985 89.9775 200.607 88.7694 203.508 88.7694" stroke="#79839C" stroke-width="2" stroke-linecap="round" stroke-linejoin="round"/>
<path d="M182.104 84.2517C183.16 83.6476 184.382 83.3079 185.692 83.3079C188.123 83.3079 190.273 84.4908 191.584 86.3155" stroke="#79839C" stroke-width="2" stroke-linecap="round" stroke-linejoin="round"/>
<path d="M189.663 104.449H174.392" stroke="#79839C" stroke-width="2" stroke-linecap="round" stroke-linejoin="round"/>
<path d="M260.392 78.1231C260.455 77.6197 260.481 77.1038 260.481 76.5878C260.481 69.0876 254.334 63.0094 246.75 63.0094C240.374 63.0094 235.029 67.3132 233.477 73.1397C232.268 72.5734 230.932 72.2588 229.507 72.2588C224.34 72.2588 220.153 76.3991 220.153 81.5083C220.153 82.5905 220.357 83.635 220.7 84.5914C220.153 84.4656 219.581 84.3901 218.982 84.3901C214.783 84.3901 211.385 87.7501 211.385 91.9029C211.385 96.0557 214.783 99.4157 218.982 99.4157H259.017C264.986 99.4157 269.834 94.6337 269.834 88.7191C269.834 83.2701 265.711 78.7901 260.392 78.1231Z" fill="white"/>
<path d="M260.392 78.1231C260.455 77.6197 260.481 77.1038 260.481 76.5878C260.481 69.0876 254.334 63.0094 246.75 63.0094C240.374 63.0094 235.029 67.3132 233.477 73.1397C232.268 72.5734 230.932 72.2588 229.507 72.2588C224.34 72.2588 220.153 76.3991 220.153 81.5083C220.153 82.5905 220.357 83.635 220.7 84.5914C220.153 84.4656 219.581 84.3901 218.982 84.3901C214.783 84.3901 211.385 87.7501 211.385 91.9029C211.385 96.0557 214.783 99.4157 218.982 99.4157H259.017C264.986 99.4157 269.834 94.6337 269.834 88.7191C269.834 83.2701 265.711 78.7901 260.392 78.1231Z" stroke="#79839C" stroke-width="2" stroke-linecap="round" stroke-linejoin="round"/>
<path d="M229.519 72.2589C232.981 72.2589 235.997 74.1214 237.613 76.8773" stroke="#79839C" stroke-width="2" stroke-linecap="round" stroke-linejoin="round"/>
<path d="M249.804 83.1442C251.7 80.0863 255.123 78.035 259.017 78.035C260.341 78.035 261.601 78.2741 262.771 78.6894" stroke="#79839C" stroke-width="2" stroke-linecap="round" stroke-linejoin="round"/>
<path d="M249.804 69.2889C248.849 68.924 247.806 68.7227 246.724 68.7227C244.052 68.7227 241.672 69.9307 240.107 71.831" stroke="#79839C" stroke-width="2" stroke-linecap="round" stroke-linejoin="round"/>
<path d="M221.477 94.3821H236.747" stroke="#79839C" stroke-width="2" stroke-linecap="round" stroke-linejoin="round"/>
<path d="M244.383 94.3821H249.473" stroke="#79839C" stroke-width="2" stroke-linecap="round" stroke-linejoin="round"/>
</g>
<defs>
<clipPath id="clip0_141_4690">
<rect width="392" height="336" fill="white"/>
</clipPath>
</defs>
</svg>

