<svg xmlns="http://www.w3.org/2000/svg" width="393" height="312" viewBox="0 0 393 312" fill="none">
<g clip-path="url(#clip0_141_4479)">
<path d="M93.6271 224.554C57.9681 213.499 30.6364 171.643 28.7414 139.612C26.8463 107.581 54.2538 69.9031 95.8253 84.9741C137.397 100.045 200.864 108.639 223.561 69.3094C245.868 30.6602 287.321 10.2345 319.937 33.4671C350.257 55.0588 371.915 101.481 356.754 136.028C341.594 170.574 334.209 182.104 351.34 207.28C392.489 267.737 305.643 340.49 256.047 290.408C172.666 206.201 142.346 239.668 93.6163 224.554H93.6271Z" fill="#EBF2F9"/>
<path d="M166.18 80.9689C178.141 80.9689 187.837 71.3019 187.837 59.3772C187.837 47.4524 178.141 37.7855 166.18 37.7855C154.218 37.7855 144.522 47.4524 144.522 59.3772C144.522 71.3019 154.218 80.9689 166.18 80.9689Z" fill="#F6F7F9"/>
<path d="M244.146 312C247.137 312 249.561 309.583 249.561 306.602C249.561 303.621 247.137 301.204 244.146 301.204C241.156 301.204 238.732 303.621 238.732 306.602C238.732 309.583 241.156 312 244.146 312Z" fill="#F6F7F9"/>
<path d="M149.395 273.135C157.469 273.135 164.014 266.61 164.014 258.561C164.014 250.511 157.469 243.986 149.395 243.986C141.321 243.986 134.776 250.511 134.776 258.561C134.776 266.61 141.321 273.135 149.395 273.135Z" fill="#F6F7F9"/>
<path d="M67.0967 63.6955C70.984 63.6955 74.1353 60.5537 74.1353 56.6782C74.1353 52.8026 70.984 49.6609 67.0967 49.6609C63.2093 49.6609 60.058 52.8026 60.058 56.6782C60.058 60.5537 63.2093 63.6955 67.0967 63.6955Z" fill="#F6F7F9"/>
<path d="M365.428 187.848C370.811 187.848 375.174 183.498 375.174 178.132C375.174 172.765 370.811 168.415 365.428 168.415C360.046 168.415 355.682 172.765 355.682 178.132C355.682 183.498 360.046 187.848 365.428 187.848Z" fill="#F6F7F9"/>
<path d="M217.075 43.1834C219.467 43.1834 221.406 41.25 221.406 38.8651C221.406 36.4801 219.467 34.5468 217.075 34.5468C214.682 34.5468 212.743 36.4801 212.743 38.8651C212.743 41.25 214.682 43.1834 217.075 43.1834Z" stroke="#FFB542" stroke-width="2" stroke-linecap="round" stroke-linejoin="round"/>
<path d="M5.91438 198.644C8.30659 198.644 10.2459 196.71 10.2459 194.325C10.2459 191.94 8.30659 190.007 5.91438 190.007C3.52216 190.007 1.58289 191.94 1.58289 194.325C1.58289 196.71 3.52216 198.644 5.91438 198.644Z" stroke="#FFDCA6" stroke-width="2" stroke-linecap="round" stroke-linejoin="round"/>
<path d="M158.599 213.758C160.992 213.758 162.931 211.824 162.931 209.439C162.931 207.054 160.992 205.121 158.599 205.121C156.207 205.121 154.268 207.054 154.268 209.439C154.268 211.824 156.207 213.758 158.599 213.758Z" stroke="#FFB542" stroke-width="2" stroke-linecap="round" stroke-linejoin="round"/>
<path d="M272.301 278.533L267.926 286.09H276.676L272.301 278.533Z" stroke="#FFC56B" stroke-width="2" stroke-linecap="round" stroke-linejoin="round"/>
<path d="M265.804 1.07959L261.429 8.63668H270.179L265.804 1.07959Z" stroke="#FFDCA6" stroke-width="2" stroke-linecap="round" stroke-linejoin="round"/>
<path d="M95.7928 263.419L91.418 270.976H100.168L95.7928 263.419Z" stroke="#FFC56B" stroke-width="2" stroke-linecap="round" stroke-linejoin="round"/>
<path d="M195.959 294.727C199.248 294.727 201.914 292.068 201.914 288.789C201.914 285.51 199.248 282.851 195.959 282.851C192.669 282.851 190.003 285.51 190.003 288.789C190.003 292.068 192.669 294.727 195.959 294.727Z" fill="#F6F7F9"/>
<path d="M192.168 278.533V281.772" stroke="#F2B24E" stroke-width="2" stroke-linecap="round" stroke-linejoin="round"/>
<path d="M192.168 288.249V291.488" stroke="#F2B24E" stroke-width="2" stroke-linecap="round" stroke-linejoin="round"/>
<path d="M188.92 285.01H185.671" stroke="#F2B24E" stroke-width="2" stroke-linecap="round" stroke-linejoin="round"/>
<path d="M198.666 285.01H195.417" stroke="#F2B24E" stroke-width="2" stroke-linecap="round" stroke-linejoin="round"/>
<path d="M196.5 280.692L194.334 282.851" stroke="#F2B24E" stroke-width="2" stroke-linecap="round" stroke-linejoin="round"/>
<path d="M190.003 287.17L187.837 289.329" stroke="#F2B24E" stroke-width="2" stroke-linecap="round" stroke-linejoin="round"/>
<path d="M190.003 282.851L187.837 280.692" stroke="#F2B24E" stroke-width="2" stroke-linecap="round" stroke-linejoin="round"/>
<path d="M196.5 289.329L194.334 287.17" stroke="#F2B24E" stroke-width="2" stroke-linecap="round" stroke-linejoin="round"/>
<path d="M386.544 152.222C389.833 152.222 392.5 149.563 392.5 146.284C392.5 143.004 389.833 140.346 386.544 140.346C383.255 140.346 380.588 143.004 380.588 146.284C380.588 149.563 383.255 152.222 386.544 152.222Z" fill="#F6F7F9"/>
<path d="M81.1741 129.55C84.4634 129.55 87.1299 126.892 87.1299 123.613C87.1299 120.333 84.4634 117.675 81.1741 117.675C77.8848 117.675 75.2183 120.333 75.2183 123.613C75.2183 126.892 77.8848 129.55 81.1741 129.55Z" fill="white"/>
<path d="M382.754 136.028V139.266" stroke="#F2B24E" stroke-width="2" stroke-linecap="round" stroke-linejoin="round"/>
<path d="M382.754 145.744V148.983" stroke="#F2B24E" stroke-width="2" stroke-linecap="round" stroke-linejoin="round"/>
<path d="M379.505 142.505H376.257" stroke="#F2B24E" stroke-width="2" stroke-linecap="round" stroke-linejoin="round"/>
<path d="M389.251 142.505H386.003" stroke="#F2B24E" stroke-width="2" stroke-linecap="round" stroke-linejoin="round"/>
<path d="M387.086 138.187L384.92 140.346" stroke="#F2B24E" stroke-width="2" stroke-linecap="round" stroke-linejoin="round"/>
<path d="M380.588 144.664L378.423 146.824" stroke="#F2B24E" stroke-width="2" stroke-linecap="round" stroke-linejoin="round"/>
<path d="M380.588 140.346L378.423 138.187" stroke="#F2B24E" stroke-width="2" stroke-linecap="round" stroke-linejoin="round"/>
<path d="M387.086 146.824L384.92 144.664" stroke="#F2B24E" stroke-width="2" stroke-linecap="round" stroke-linejoin="round"/>
<path d="M76.3011 113.356V116.595" stroke="#E08C0B" stroke-width="2" stroke-linecap="round" stroke-linejoin="round"/>
<path d="M76.3011 123.073V126.311" stroke="#E08C0B" stroke-width="2" stroke-linecap="round" stroke-linejoin="round"/>
<path d="M73.0525 119.834H69.8038" stroke="#E08C0B" stroke-width="2" stroke-linecap="round" stroke-linejoin="round"/>
<path d="M82.7984 119.834H79.5498" stroke="#E08C0B" stroke-width="2" stroke-linecap="round" stroke-linejoin="round"/>
<path d="M80.6327 115.516L78.4669 117.675" stroke="#E08C0B" stroke-width="2" stroke-linecap="round" stroke-linejoin="round"/>
<path d="M74.1354 121.993L71.9696 124.152" stroke="#E08C0B" stroke-width="2" stroke-linecap="round" stroke-linejoin="round"/>
<path d="M74.1354 117.675L71.9696 115.516" stroke="#E08C0B" stroke-width="2" stroke-linecap="round" stroke-linejoin="round"/>
<path d="M80.6327 124.152L78.4669 121.993" stroke="#E08C0B" stroke-width="2" stroke-linecap="round" stroke-linejoin="round"/>
<path d="M340.522 98.2422L338.356 100.401" stroke="#F2B24E" stroke-width="2" stroke-linecap="round" stroke-linejoin="round"/>
<path d="M334.025 104.72L331.859 106.879" stroke="#F2B24E" stroke-width="2" stroke-linecap="round" stroke-linejoin="round"/>
<path d="M334.025 100.401L331.859 98.2422" stroke="#F2B24E" stroke-width="2" stroke-linecap="round" stroke-linejoin="round"/>
<path d="M340.522 106.879L338.356 104.72" stroke="#F2B24E" stroke-width="2" stroke-linecap="round" stroke-linejoin="round"/>
<path d="M41.6491 68.0138L39.4834 70.173" stroke="#F2B24E" stroke-width="2" stroke-linecap="round" stroke-linejoin="round"/>
<path d="M35.152 74.4913L32.9862 76.6505" stroke="#F2B24E" stroke-width="2" stroke-linecap="round" stroke-linejoin="round"/>
<path d="M35.152 70.173L32.9862 68.0138" stroke="#F2B24E" stroke-width="2" stroke-linecap="round" stroke-linejoin="round"/>
<path d="M41.6491 76.6505L39.4834 74.4913" stroke="#F2B24E" stroke-width="2" stroke-linecap="round" stroke-linejoin="round"/>
<path d="M126.113 71.2526H112.036C110.249 71.2526 108.787 69.7952 108.787 68.0139C108.787 66.2326 110.249 64.7751 112.036 64.7751H114.202C115.988 64.7751 117.45 63.3177 117.45 61.5364C117.45 59.755 115.988 58.2976 114.202 58.2976H102.29M134.776 71.2526H140.191" stroke="#F2B24E" stroke-width="2" stroke-linecap="round" stroke-linejoin="round"/>
<path d="M349.185 210.519H277.715C277.715 210.519 277.715 197.888 277.715 194.325C277.715 190.763 280.639 187.848 284.213 187.848H342.688C346.261 187.848 349.185 190.763 349.185 194.325V210.519Z" fill="#C2E5FF"/>
<path d="M277.715 210.519C277.715 210.519 277.715 197.888 277.715 194.325C277.715 190.763 280.639 187.848 284.213 187.848H342.688C346.261 187.848 349.185 190.763 349.185 194.325V196.484" stroke="#0984FF" stroke-width="2" stroke-linecap="round" stroke-linejoin="round"/>
<path d="M313.359 205.323C322.744 205.323 330.352 197.709 330.352 188.317C330.352 178.924 322.744 171.31 313.359 171.31C303.973 171.31 296.365 178.924 296.365 188.317C296.365 197.709 303.973 205.323 313.359 205.323Z" fill="#FEEDAF"/>
<path d="M314.378 171.392C305.793 172.242 299.084 179.496 299.084 188.317C299.084 197.138 305.793 204.384 314.378 205.242C322.964 204.391 329.673 197.138 329.673 188.317C329.673 179.496 322.964 172.249 314.378 171.392Z" fill="#FFCD19"/>
<path d="M313.359 205.323C322.744 205.323 330.352 197.709 330.352 188.317C330.352 178.924 322.744 171.31 313.359 171.31C303.973 171.31 296.365 178.924 296.365 188.317C296.365 197.709 303.973 205.323 313.359 205.323Z" stroke="#E08C0B" stroke-width="2" stroke-linecap="round" stroke-linejoin="round"/>
<path d="M327.397 188.317C327.397 196.073 321.109 202.365 313.359 202.365C305.608 202.365 299.32 196.073 299.32 188.317C299.32 180.56 305.608 174.268 313.359 174.268C315.154 174.268 316.876 174.608 318.457 175.222" stroke="#E08C0B" stroke-width="2" stroke-linecap="round" stroke-linejoin="round"/>
<path d="M315.575 177.965L308.925 188.317L315.575 198.668L322.225 188.317L315.575 177.965Z" fill="#F2B12C"/>
<path d="M313.359 177.965L306.709 188.317L313.359 198.668L320.008 188.317L313.359 177.965Z" fill="#FFF9E3"/>
<path d="M306.709 188.317L313.359 177.965L320.008 188.317L313.359 192.014L306.709 188.317Z" stroke="#E08C0B" stroke-width="2" stroke-linecap="round" stroke-linejoin="round"/>
<path d="M320.008 188.317L313.359 198.668L306.709 188.317" stroke="#E08C0B" stroke-width="2" stroke-linecap="round" stroke-linejoin="round"/>
<path d="M284.213 200.803C280.628 200.803 277.715 197.899 277.715 194.325V253.702C277.715 256.682 280.141 259.1 283.13 259.1H350.268C353.257 259.1 355.682 256.682 355.682 253.702V206.201C355.682 203.221 353.257 200.803 350.268 200.803H284.213Z" fill="#C2E5FF"/>
<path d="M355.682 253.702V206.201C355.682 203.221 353.257 200.803 350.268 200.803H284.213C283.845 200.803 283.487 200.76 283.13 200.706V253.702C283.13 256.682 285.556 259.1 288.544 259.1H350.268C353.257 259.1 355.682 256.682 355.682 253.702Z" fill="#5AB9FF"/>
<path d="M355.682 216.996V206.201C355.682 203.221 353.257 200.803 350.268 200.803H284.213C280.628 200.803 277.715 197.899 277.715 194.325V253.702C277.715 256.682 280.141 259.1 283.13 259.1H350.268C353.257 259.1 355.682 256.682 355.682 253.702V231.215" stroke="#0984FF" stroke-width="2" stroke-linecap="round" stroke-linejoin="round"/>
<mask id="mask0_141_4479" style="mask-type:luminance" maskUnits="userSpaceOnUse" x="280" y="197" width="81" height="69">
<path d="M360.014 197.564H280.964V265.578H360.014V197.564Z" fill="white"/>
</mask>
<g mask="url(#mask0_141_4479)">
<path d="M284.213 205.121H287.461" stroke="#0984FF" stroke-width="2" stroke-linecap="round" stroke-linejoin="round"/>
<path d="M293.017 205.121H350.268C350.864 205.121 351.351 205.607 351.351 206.201V253.702C351.351 254.296 350.864 254.782 350.268 254.782H290.234" stroke="#0984FF" stroke-width="2" stroke-linecap="round" stroke-linejoin="round"/>
<path d="M287.461 254.782H284.213" stroke="#0984FF" stroke-width="2" stroke-linecap="round" stroke-linejoin="round"/>
</g>
<path d="M336.191 221.315H357.848C358.444 221.315 358.931 221.801 358.931 222.395V237.509C358.931 238.102 358.444 238.588 357.848 238.588H336.191C333.202 238.588 330.776 236.17 330.776 233.19V226.713C330.776 223.733 333.202 221.315 336.191 221.315Z" fill="#C2E5FF"/>
<path d="M358.931 237.509V222.395C358.931 221.801 358.444 221.315 357.848 221.315H339.439C336.461 221.315 334.025 223.744 334.025 226.713V233.19C334.025 236.159 336.461 238.588 339.439 238.588H357.848C358.444 238.588 358.931 238.102 358.931 237.509Z" fill="#5AB9FF"/>
<path d="M336.191 221.315H357.848C358.444 221.315 358.931 221.801 358.931 222.395V237.509C358.931 238.102 358.444 238.588 357.848 238.588H336.191C333.202 238.588 330.776 236.17 330.776 233.19V226.713C330.776 223.733 333.202 221.315 336.191 221.315Z" stroke="#0984FF" stroke-width="2" stroke-linecap="round" stroke-linejoin="round"/>
<path d="M342.688 233.19C344.482 233.19 345.936 231.74 345.936 229.952C345.936 228.163 344.482 226.713 342.688 226.713C340.894 226.713 339.439 228.163 339.439 229.952C339.439 231.74 340.894 233.19 342.688 233.19Z" fill="#C2E5FF"/>
<path d="M339.439 233.19C341.233 233.19 342.688 231.74 342.688 229.952C342.688 228.163 341.233 226.713 339.439 226.713C337.645 226.713 336.191 228.163 336.191 229.952C336.191 231.74 337.645 233.19 339.439 233.19Z" stroke="#0984FF" stroke-width="2" stroke-linecap="round" stroke-linejoin="round"/>
<path d="M332.942 194.325H343.771" stroke="#0984FF" stroke-width="2" stroke-linecap="round" stroke-linejoin="round"/>
<path d="M283.13 194.325H293.959" stroke="#0984FF" stroke-width="2" stroke-linecap="round" stroke-linejoin="round"/>
<path d="M313.45 166.256V156.54" stroke="#F2B12C" stroke-width="2" stroke-linecap="round" stroke-linejoin="round"/>
<path d="M324.279 169.149L329.152 160.739" stroke="#F2B12C" stroke-width="2" stroke-linecap="round" stroke-linejoin="round"/>
<path d="M286.259 172.194L294.695 177.052" stroke="#F2B12C" stroke-width="2" stroke-linecap="round" stroke-linejoin="round"/>
<path d="M302.622 169.149L297.749 160.739" stroke="#F2B12C" stroke-width="2" stroke-linecap="round" stroke-linejoin="round"/>
<path d="M332.206 177.052L340.641 172.194" stroke="#F2B12C" stroke-width="2" stroke-linecap="round" stroke-linejoin="round"/>
<path d="M104.997 166.256H45.4392C43.346 166.256 41.6492 167.948 41.6492 170.035V239.128C41.6492 241.215 43.346 242.907 45.4392 242.907H104.997C107.09 242.907 108.787 241.215 108.787 239.128V170.035C108.787 167.948 107.09 166.256 104.997 166.256Z" fill="#FFB891"/>
<path d="M104.997 166.256H50.8537C48.7605 166.256 47.0636 167.948 47.0636 170.035V239.128C47.0636 241.215 48.7605 242.907 50.8537 242.907H104.997C107.09 242.907 108.787 241.215 108.787 239.128V170.035C108.787 167.948 107.09 166.256 104.997 166.256Z" fill="#FF4D52"/>
<path d="M54.6436 166.256H104.997C107.087 166.256 108.787 167.951 108.787 170.035V239.128C108.787 241.212 107.087 242.907 104.997 242.907H45.4392C43.3493 242.907 41.6492 241.212 41.6492 239.128V170.035C41.6492 167.951 43.3493 166.256 45.4392 166.256" stroke="#A12225" stroke-width="2" stroke-linecap="round" stroke-linejoin="round"/>
<path d="M102.29 172.734H48.1465V187.848H102.29V172.734Z" fill="white"/>
<path d="M53.5609 172.734H48.1465V187.848H53.5609V172.734Z" fill="#E5E5E5"/>
<path d="M102.29 172.734H48.1465V187.848H102.29V172.734Z" stroke="#A12225" stroke-width="2" stroke-linecap="round" stroke-linejoin="round"/>
<path d="M64.3895 202.962H51.395V215.917H64.3895V202.962Z" fill="#E8252B"/>
<path d="M61.141 202.962H48.1465V215.917H61.141V202.962Z" fill="#FFB891"/>
<path d="M84.9641 202.962H71.9696V215.917H84.9641V202.962Z" fill="#E8252B"/>
<path d="M81.7154 202.962H68.7209V215.917H81.7154V202.962Z" fill="#FFB891"/>
<path d="M105.539 202.962H92.5442V215.917H105.539V202.962Z" fill="#E8252B"/>
<path d="M102.29 202.962H89.2957V215.917H102.29V202.962Z" fill="#FFB891"/>
<path d="M105.539 222.394H92.5442V235.349H105.539V222.394Z" fill="#E8252B"/>
<path d="M102.29 222.394H89.2957V235.349H102.29V222.394Z" fill="#FFB891"/>
<path d="M84.9641 222.394H71.9696V235.349H84.9641V222.394Z" fill="#E8252B"/>
<path d="M81.7154 222.394H68.7209V235.349H81.7154V222.394Z" fill="#FFB891"/>
<path d="M64.3895 222.394H51.395V235.349H64.3895V222.394Z" fill="#E8252B"/>
<path d="M61.141 222.394H48.1465V235.349H61.141V222.394Z" fill="#FFB891"/>
<path d="M61.141 202.962H48.1465V215.917H61.141V202.962Z" stroke="#A12225" stroke-width="2" stroke-linecap="round" stroke-linejoin="round"/>
<path d="M81.7154 202.962H68.7209V215.917H81.7154V202.962Z" stroke="#A12225" stroke-width="2" stroke-linecap="round" stroke-linejoin="round"/>
<path d="M102.29 202.962H89.2957V215.917H102.29V202.962Z" stroke="#A12225" stroke-width="2" stroke-linecap="round" stroke-linejoin="round"/>
<path d="M61.141 222.394H48.1465V235.349H61.141V222.394Z" stroke="#A12225" stroke-width="2" stroke-linecap="round" stroke-linejoin="round"/>
<path d="M81.7154 222.394H68.7209V235.349H81.7154V222.394Z" stroke="#A12225" stroke-width="2" stroke-linecap="round" stroke-linejoin="round"/>
<path d="M102.29 222.394H89.2957V235.349H102.29V222.394Z" stroke="#A12225" stroke-width="2" stroke-linecap="round" stroke-linejoin="round"/>
<path d="M54.6437 206.201V212.678" stroke="#A12225" stroke-width="2" stroke-linecap="round" stroke-linejoin="round"/>
<path d="M51.395 209.439H57.8923" stroke="#A12225" stroke-width="2" stroke-linecap="round" stroke-linejoin="round"/>
<path d="M51.395 228.872H57.8923" stroke="#A12225" stroke-width="2" stroke-linecap="round" stroke-linejoin="round"/>
<path d="M71.9696 228.872H78.4668" stroke="#A12225" stroke-width="2" stroke-linecap="round" stroke-linejoin="round"/>
<path d="M92.5442 226.713H99.0414" stroke="#A12225" stroke-width="2" stroke-linecap="round" stroke-linejoin="round"/>
<path d="M92.5442 231.031H99.0414" stroke="#A12225" stroke-width="2" stroke-linecap="round" stroke-linejoin="round"/>
<path d="M77.9255 206.74L72.5111 212.138" stroke="#A12225" stroke-width="2" stroke-linecap="round" stroke-linejoin="round"/>
<path d="M72.5111 206.74L77.9255 212.138" stroke="#A12225" stroke-width="2" stroke-linecap="round" stroke-linejoin="round"/>
<path d="M75.7813 224.554H74.6552C74.3681 224.554 74.1354 224.786 74.1354 225.072V226.195C74.1354 226.481 74.3681 226.713 74.6552 226.713H75.7813C76.0684 226.713 76.3011 226.481 76.3011 226.195V225.072C76.3011 224.786 76.0684 224.554 75.7813 224.554Z" fill="#A12225"/>
<path d="M75.7813 231.031H74.6552C74.3681 231.031 74.1354 231.263 74.1354 231.549V232.672C74.1354 232.958 74.3681 233.19 74.6552 233.19H75.7813C76.0684 233.19 76.3011 232.958 76.3011 232.672V231.549C76.3011 231.263 76.0684 231.031 75.7813 231.031Z" fill="#A12225"/>
<path d="M98.1426 207.205C97.5471 206.589 96.7133 206.201 95.7928 206.201C93.9952 206.201 92.5442 207.647 92.5442 209.439C92.5442 211.232 93.9952 212.678 95.7928 212.678C96.6916 212.678 97.5038 212.311 98.0885 211.728" stroke="#A12225" stroke-width="2" stroke-linecap="round" stroke-linejoin="round"/>
<path d="M86.047 175.972H90.3785V180.291H86.047" stroke="#79839C" stroke-width="2" stroke-linecap="round" stroke-linejoin="round"/>
<path d="M93.6271 175.972H97.9586V180.291H93.6271" stroke="#79839C" stroke-width="2" stroke-linecap="round" stroke-linejoin="round"/>
<path d="M93.6271 180.291H97.9586V184.609H93.6271" stroke="#79839C" stroke-width="2" stroke-linecap="round" stroke-linejoin="round"/>
<path d="M90.3785 184.609H86.047V180.291" stroke="#79839C" stroke-width="2" stroke-linecap="round" stroke-linejoin="round"/>
<path d="M81.7155 175.972V184.609" stroke="#79839C" stroke-width="2" stroke-linecap="round" stroke-linejoin="round"/>
<path d="M41.6492 195.405H96.8757" stroke="#A12225" stroke-width="2" stroke-linecap="round" stroke-linejoin="round"/>
<path d="M102.29 195.405H108.787" stroke="#A12225" stroke-width="2" stroke-linecap="round" stroke-linejoin="round"/>
<path d="M45.2243 177.215C52.3345 177.215 58.0984 171.447 58.0984 164.332C58.0984 157.216 52.3345 151.448 45.2243 151.448C38.1142 151.448 32.3503 157.216 32.3503 164.332C32.3503 171.447 38.1142 177.215 45.2243 177.215Z" fill="#FEEDAF"/>
<path d="M45.9968 151.51C39.4926 152.154 34.4102 157.649 34.4102 164.332C34.4102 171.014 39.4926 176.504 45.9968 177.153C52.5009 176.509 57.5834 171.014 57.5834 164.332C57.5834 157.649 52.5009 152.16 45.9968 151.51Z" fill="#FFCD19"/>
<path d="M45.2243 177.215C52.3345 177.215 58.0984 171.447 58.0984 164.332C58.0984 157.216 52.3345 151.448 45.2243 151.448C38.1142 151.448 32.3503 157.216 32.3503 164.332C32.3503 171.447 38.1142 177.215 45.2243 177.215Z" stroke="#E08C0B" stroke-width="2" stroke-linecap="round" stroke-linejoin="round"/>
<path d="M55.8594 164.332C55.8594 170.208 51.0961 174.975 45.2244 174.975C39.3527 174.975 34.5894 170.208 34.5894 164.332C34.5894 158.456 39.3527 153.689 45.2244 153.689C46.5846 153.689 47.8888 153.947 49.0866 154.412" stroke="#E08C0B" stroke-width="2" stroke-linecap="round" stroke-linejoin="round"/>
<path d="M46.9035 156.49L41.8658 164.332L46.9035 172.174L51.9412 164.332L46.9035 156.49Z" fill="#F2B12C"/>
<path d="M45.2243 156.49L40.1866 164.332L45.2243 172.174L50.262 164.332L45.2243 156.49Z" fill="#FFF9E3"/>
<path d="M40.1866 164.332L45.2243 156.49L50.262 164.332L45.2243 167.132L40.1866 164.332Z" stroke="#E08C0B" stroke-width="2" stroke-linecap="round" stroke-linejoin="round"/>
<path d="M50.262 164.332L45.2243 172.174L40.1866 164.332" stroke="#E08C0B" stroke-width="2" stroke-linecap="round" stroke-linejoin="round"/>
<path d="M298.42 52.6514C299.871 52.6514 301.257 52.8997 302.567 53.3315C302.318 52.2087 302.167 51.0536 302.167 49.8552C302.167 41.089 309.303 33.9745 318.096 33.9745C326.033 33.9745 332.596 39.7719 333.808 47.3506C334.794 47.1671 335.801 47.0591 336.84 47.0591C345.633 47.0591 352.769 54.1736 352.769 62.9398C352.769 71.706 345.633 78.8205 336.84 78.8205C328.903 78.8205 305.664 78.8205 298.42 78.8205C291.176 78.8205 285.296 72.9691 285.296 65.7359C285.296 58.5027 291.165 52.6514 298.42 52.6514Z" fill="white"/>
<path d="M298.42 52.6514C299.871 52.6514 301.257 52.8997 302.567 53.3315C302.318 52.2087 302.167 51.0536 302.167 49.8552C302.167 41.089 309.303 33.9745 318.096 33.9745C326.033 33.9745 332.596 39.7719 333.808 47.3506C334.794 47.1671 335.801 47.0591 336.84 47.0591C345.633 47.0591 352.769 54.1736 352.769 62.9398C352.769 71.706 345.633 78.8205 336.84 78.8205C328.903 78.8205 305.664 78.8205 298.42 78.8205C291.176 78.8205 285.296 72.9691 285.296 65.7359C285.296 58.5027 291.165 52.6514 298.42 52.6514Z" stroke="#79839C" stroke-width="2" stroke-linecap="round" stroke-linejoin="round"/>
<path d="M348.081 62.929C348.081 56.743 343.034 51.7229 336.84 51.7229C336.147 51.7229 335.422 51.7985 334.696 51.9388" stroke="#79839C" stroke-width="2" stroke-linecap="round" stroke-linejoin="round"/>
<path d="M296.124 72.3322H309.119" stroke="#79839C" stroke-width="2" stroke-linecap="round" stroke-linejoin="round"/>
<path d="M315.616 72.3322H319.947" stroke="#79839C" stroke-width="2" stroke-linecap="round" stroke-linejoin="round"/>
<path d="M333.808 47.3398C328.567 48.3114 324.225 51.8524 322.113 56.581" stroke="#79839C" stroke-width="2" stroke-linecap="round" stroke-linejoin="round"/>
<path d="M326.185 44.6948C324.755 41.9095 321.853 39.9986 318.496 39.9986C317.359 39.9986 316.277 40.2145 315.28 40.614" stroke="#79839C" stroke-width="2" stroke-linecap="round" stroke-linejoin="round"/>
<path d="M246.312 95.0034H129.362C124.577 95.0034 120.699 98.8702 120.699 103.64V182.45C120.699 187.22 124.577 191.086 129.362 191.086H246.312C251.097 191.086 254.975 187.22 254.975 182.45V103.64C254.975 98.8702 251.097 95.0034 246.312 95.0034Z" fill="white"/>
<path d="M246.312 95.0034H134.776C129.992 95.0034 126.113 98.8702 126.113 103.64V182.45C126.113 187.22 129.992 191.086 134.776 191.086H246.312C251.097 191.086 254.975 187.22 254.975 182.45V103.64C254.975 98.8702 251.097 95.0034 246.312 95.0034Z" fill="#E5E5E5"/>
<path d="M120.699 167.552V182.45C120.699 187.222 124.576 191.086 129.362 191.086H246.312C251.098 191.086 254.975 187.222 254.975 182.45V103.64C254.975 98.8683 251.098 95.0034 246.312 95.0034H129.362C124.576 95.0034 120.699 98.8683 120.699 103.64V137.647" stroke="#79839C" stroke-width="2" stroke-linecap="round" stroke-linejoin="round"/>
<path d="M243.064 100.401H132.61V184.609H243.064V100.401Z" fill="#E5E5E5"/>
<path d="M243.064 100.401H138.025V184.609H243.064V100.401Z" fill="white"/>
<path d="M132.61 168.415V184.609H243.064V100.401H230.069" stroke="#79839C" stroke-width="2" stroke-linecap="round" stroke-linejoin="round"/>
<path d="M221.623 100.401H132.61V152.221" stroke="#79839C" stroke-width="2" stroke-linecap="round" stroke-linejoin="round"/>
<path d="M187.837 112.277C196.21 112.277 202.997 105.51 202.997 97.1626C202.997 88.8153 196.21 82.0485 187.837 82.0485C179.464 82.0485 172.677 88.8153 172.677 97.1626C172.677 105.51 179.464 112.277 187.837 112.277Z" fill="#82ED9B"/>
<path d="M190.003 82.2212C182.661 83.2684 177.008 89.5516 177.008 97.1626C177.008 104.774 182.661 111.057 190.003 112.104C197.345 111.057 202.997 104.774 202.997 97.1626C202.997 89.5516 197.345 83.2684 190.003 82.2212Z" fill="#2FCC53"/>
<path d="M187.837 112.277C196.21 112.277 202.997 105.51 202.997 97.1626C202.997 88.8153 196.21 82.0485 187.837 82.0485C179.464 82.0485 172.677 88.8153 172.677 97.1626C172.677 105.51 179.464 112.277 187.837 112.277Z" stroke="#018A21" stroke-width="2" stroke-linecap="round" stroke-linejoin="round"/>
<path d="M195.482 94.3342C194.085 91.5272 191.183 89.6056 187.837 89.6056C184.491 89.6056 181.6 91.5273 180.203 94.3234" stroke="#018A21" stroke-width="2" stroke-linecap="round" stroke-linejoin="round"/>
<path d="M196.132 89.6056L195.482 94.3342L190.728 93.6864" stroke="#018A21" stroke-width="2" stroke-linecap="round" stroke-linejoin="round"/>
<path d="M180.192 99.9912C181.589 102.798 184.491 104.72 187.837 104.72C191.183 104.72 194.074 102.798 195.471 100.002" stroke="#018A21" stroke-width="2" stroke-linecap="round" stroke-linejoin="round"/>
<path d="M179.542 104.72L180.192 99.9912L184.946 100.639" stroke="#018A21" stroke-width="2" stroke-linecap="round" stroke-linejoin="round"/>
<path d="M187.798 151.505C195.121 151.505 201.058 145.564 201.058 138.235C201.058 130.907 195.121 124.966 187.798 124.966C180.475 124.966 174.538 130.907 174.538 138.235C174.538 145.564 180.475 151.505 187.798 151.505Z" fill="#FEEDAF"/>
<path d="M188.594 125.029C181.895 125.693 176.66 131.352 176.66 138.235C176.66 145.118 181.895 150.772 188.594 151.442C195.293 150.778 200.528 145.118 200.528 138.235C200.528 131.352 195.293 125.698 188.594 125.029Z" fill="#FFCD19"/>
<path d="M187.798 151.505C195.121 151.505 201.058 145.564 201.058 138.235C201.058 130.907 195.121 124.966 187.798 124.966C180.475 124.966 174.538 130.907 174.538 138.235C174.538 145.564 180.475 151.505 187.798 151.505Z" stroke="#E08C0B" stroke-width="2" stroke-linecap="round" stroke-linejoin="round"/>
<path d="M198.752 138.235C198.752 144.288 193.846 149.197 187.798 149.197C181.75 149.197 176.844 144.288 176.844 138.235C176.844 132.183 181.75 127.273 187.798 127.273C189.199 127.273 190.542 127.539 191.776 128.018" stroke="#E08C0B" stroke-width="2" stroke-linecap="round" stroke-linejoin="round"/>
<path d="M189.528 130.158L184.339 138.235L189.528 146.313L194.716 138.235L189.528 130.158Z" fill="#F2B12C"/>
<path d="M187.798 130.158L182.609 138.235L187.798 146.313L192.987 138.235L187.798 130.158Z" fill="#FFF9E3"/>
<path d="M182.609 138.235L187.798 130.158L192.987 138.235L187.798 141.12L182.609 138.235Z" stroke="#E08C0B" stroke-width="2" stroke-linecap="round" stroke-linejoin="round"/>
<path d="M192.987 138.235L187.798 146.313L182.609 138.235" stroke="#E08C0B" stroke-width="2" stroke-linecap="round" stroke-linejoin="round"/>
<path d="M146.688 127.391C148.482 127.391 149.936 125.941 149.936 124.152C149.936 122.363 148.482 120.913 146.688 120.913C144.894 120.913 143.439 122.363 143.439 124.152C143.439 125.941 144.894 127.391 146.688 127.391Z" fill="#C9F5FE"/>
<path d="M166.18 113.356C167.974 113.356 169.428 111.906 169.428 110.118C169.428 108.329 167.974 106.879 166.18 106.879C164.385 106.879 162.931 108.329 162.931 110.118C162.931 111.906 164.385 113.356 166.18 113.356Z" fill="#C9F5FE"/>
<path d="M222.489 118.754C224.283 118.754 225.738 117.304 225.738 115.516C225.738 113.727 224.283 112.277 222.489 112.277C220.695 112.277 219.24 113.727 219.24 115.516C219.24 117.304 220.695 118.754 222.489 118.754Z" fill="#C9F5FE"/>
<path d="M153.185 177.052C154.979 177.052 156.434 175.602 156.434 173.813C156.434 172.025 154.979 170.574 153.185 170.574C151.391 170.574 149.937 172.025 149.937 173.813C149.937 175.602 151.391 177.052 153.185 177.052Z" fill="#C9F5FE"/>
<path d="M183.506 179.211C185.3 179.211 186.754 177.761 186.754 175.972C186.754 174.184 185.3 172.734 183.506 172.734C181.711 172.734 180.257 174.184 180.257 175.972C180.257 177.761 181.711 179.211 183.506 179.211Z" fill="#C9F5FE"/>
<path d="M126.113 163.017C127.907 163.017 129.362 161.567 129.362 159.779C129.362 157.99 127.907 156.54 126.113 156.54C124.319 156.54 122.865 157.99 122.865 159.779C122.865 161.567 124.319 163.017 126.113 163.017Z" stroke="#0984FF" stroke-width="2" stroke-linecap="round" stroke-linejoin="round"/>
<path d="M104.456 154.381C106.25 154.381 107.704 152.931 107.704 151.142C107.704 149.353 106.25 147.903 104.456 147.903C102.662 147.903 101.207 149.353 101.207 151.142C101.207 152.931 102.662 154.381 104.456 154.381Z" fill="white"/>
<path d="M101.207 154.381C103.001 154.381 104.456 152.931 104.456 151.142C104.456 149.353 103.001 147.903 101.207 147.903C99.4131 147.903 97.9586 149.353 97.9586 151.142C97.9586 152.931 99.4131 154.381 101.207 154.381Z" stroke="#0984FF" stroke-width="2" stroke-linecap="round" stroke-linejoin="round"/>
<path d="M143.439 127.391C145.233 127.391 146.688 125.941 146.688 124.152C146.688 122.363 145.233 120.913 143.439 120.913C141.645 120.913 140.191 122.363 140.191 124.152C140.191 125.941 141.645 127.391 143.439 127.391Z" stroke="#0984FF" stroke-width="2" stroke-linecap="round" stroke-linejoin="round"/>
<path d="M162.931 113.356C164.725 113.356 166.18 111.906 166.18 110.118C166.18 108.329 164.725 106.879 162.931 106.879C161.137 106.879 159.682 108.329 159.682 110.118C159.682 111.906 161.137 113.356 162.931 113.356Z" stroke="#0984FF" stroke-width="2" stroke-linecap="round" stroke-linejoin="round"/>
<path d="M219.24 118.754C221.034 118.754 222.489 117.304 222.489 115.516C222.489 113.727 221.034 112.277 219.24 112.277C217.446 112.277 215.992 113.727 215.992 115.516C215.992 117.304 217.446 118.754 219.24 118.754Z" stroke="#0984FF" stroke-width="2" stroke-linecap="round" stroke-linejoin="round"/>
<path d="M180.257 179.211C182.051 179.211 183.506 177.761 183.506 175.972C183.506 174.184 182.051 172.734 180.257 172.734C178.463 172.734 177.008 174.184 177.008 175.972C177.008 177.761 178.463 179.211 180.257 179.211Z" stroke="#0984FF" stroke-width="2" stroke-linecap="round" stroke-linejoin="round"/>
<path d="M149.936 177.052C151.731 177.052 153.185 175.602 153.185 173.813C153.185 172.025 151.731 170.574 149.936 170.574C148.142 170.574 146.688 172.025 146.688 173.813C146.688 175.602 148.142 177.052 149.936 177.052Z" stroke="#0984FF" stroke-width="2" stroke-linecap="round" stroke-linejoin="round"/>
<path d="M129.362 159.779H143.439V154.381H169.428" stroke="#0984FF" stroke-width="2" stroke-linecap="round" stroke-linejoin="round"/>
<path d="M172.677 143.585H114.202V151.142H104.456" stroke="#0984FF" stroke-width="2" stroke-linecap="round" stroke-linejoin="round"/>
<path d="M169.428 134.948H154.268V124.152H146.688" stroke="#0984FF" stroke-width="2" stroke-linecap="round" stroke-linejoin="round"/>
<path d="M180.257 166.256V172.734" stroke="#0984FF" stroke-width="2" stroke-linecap="round" stroke-linejoin="round"/>
<path d="M173.76 160.858V166.256H149.937V170.574" stroke="#0984FF" stroke-width="2" stroke-linecap="round" stroke-linejoin="round"/>
<path d="M173.76 124.152V117.675H162.931V113.356" stroke="#0984FF" stroke-width="2" stroke-linecap="round" stroke-linejoin="round"/>
<path d="M202.997 129.55H219.24V118.754" stroke="#0984FF" stroke-width="2" stroke-linecap="round" stroke-linejoin="round"/>
<path d="M278.798 124.152H280.899C297.684 124.152 311.285 110.593 311.285 93.8592V88.526" stroke="#2C627A" stroke-width="2" stroke-linecap="round" stroke-linejoin="round"/>
<path d="M272.301 124.152H265.804" stroke="#2C627A" stroke-width="2" stroke-linecap="round" stroke-linejoin="round"/>
<path d="M317.782 95.0035L311.284 88.526L304.787 95.0035" stroke="#2C627A" stroke-width="2" stroke-linecap="round" stroke-linejoin="round"/>
<path d="M251.726 181.37V169.495C251.726 167.12 249.777 165.177 247.395 165.177C245.013 165.177 243.064 167.12 243.064 169.495V177.052V168.955C243.064 166.289 240.876 164.097 238.191 164.097C235.516 164.097 233.318 166.278 233.318 168.955V177.052V167.336C233.318 164.367 230.881 161.938 227.903 161.938C224.925 161.938 222.489 164.367 222.489 167.336V177.052V150.062C222.489 147.093 220.052 144.664 217.075 144.664C214.097 144.664 211.66 147.093 211.66 150.062V184.609C211.66 184.609 211.173 178.304 209.711 175.875C208.249 173.446 203.03 169.16 199.25 169.16C195.471 169.16 192.872 170.877 194.204 172.96C195.904 175.616 197.897 179.028 201.308 183.637C204.719 188.247 203.679 196.085 207.34 202.152C210.989 208.22 217.085 209.429 217.085 209.429V218.065H246.323V210.508C247.417 209.051 251.737 195.664 251.737 193.235V181.36" fill="#FBDCBA"/>
<path d="M251.726 181.37V169.495C251.726 167.12 249.777 165.177 247.395 165.177C245.013 165.177 243.064 167.12 243.064 169.495V177.052V168.955C243.064 166.289 240.876 164.097 238.191 164.097C235.516 164.097 233.318 166.278 233.318 168.955V177.052V167.336C233.318 164.367 230.881 161.938 227.903 161.938C224.925 161.938 222.489 164.367 222.489 167.336V177.052V150.062C222.489 147.093 220.052 144.664 217.075 144.664C214.097 144.664 211.66 147.093 211.66 150.062V184.609C211.66 184.609 211.173 178.304 209.711 175.875C208.249 173.446 203.03 169.16 199.25 169.16C195.471 169.16 192.872 170.877 194.204 172.96C195.904 175.616 197.897 179.028 201.308 183.637C204.719 188.247 203.679 196.085 207.34 202.152C210.989 208.22 217.085 209.429 217.085 209.429V218.065H246.323V210.508C247.417 209.051 251.737 195.664 251.737 193.235V181.36" stroke="#A37A4E" stroke-width="2" stroke-linecap="round" stroke-linejoin="round"/>
<path d="M253.892 214.837H214.909V228.872H253.892V214.837Z" fill="#AC9DEA"/>
<path d="M220.323 214.837H214.909V228.872H220.323V214.837Z" fill="#D6CCFF"/>
<path d="M253.892 214.837H214.909V228.872H253.892V214.837Z" stroke="#5846A6" stroke-width="2" stroke-linecap="round" stroke-linejoin="round"/>
<path d="M248.478 224.554C250.272 224.554 251.726 223.104 251.726 221.315C251.726 219.526 250.272 218.076 248.478 218.076C246.684 218.076 245.229 219.526 245.229 221.315C245.229 223.104 246.684 224.554 248.478 224.554Z" fill="#8774D4"/>
<path d="M246.312 224.554C248.106 224.554 249.561 223.104 249.561 221.315C249.561 219.526 248.106 218.076 246.312 218.076C244.518 218.076 243.063 219.526 243.063 221.315C243.063 223.104 244.518 224.554 246.312 224.554Z" fill="#FFD071"/>
<path d="M246.312 224.554C248.106 224.554 249.561 223.104 249.561 221.315C249.561 219.526 248.106 218.076 246.312 218.076C244.518 218.076 243.063 219.526 243.063 221.315C243.063 223.104 244.518 224.554 246.312 224.554Z" stroke="#5846A6" stroke-width="2" stroke-linecap="round" stroke-linejoin="round"/>
<path d="M217.075 136.028V140.346" stroke="#0984FF" stroke-width="2" stroke-linecap="round" stroke-linejoin="round"/>
<path d="M208.412 148.983H204.08" stroke="#0984FF" stroke-width="2" stroke-linecap="round" stroke-linejoin="round"/>
<path d="M230.069 148.983H225.738" stroke="#0984FF" stroke-width="2" stroke-linecap="round" stroke-linejoin="round"/>
<path d="M226.268 139.817L223.204 142.872" stroke="#0984FF" stroke-width="2" stroke-linecap="round" stroke-linejoin="round"/>
<path d="M210.946 142.872L207.881 139.817" stroke="#0984FF" stroke-width="2" stroke-linecap="round" stroke-linejoin="round"/>
</g>
<defs>
<clipPath id="clip0_141_4479">
<rect width="392" height="312" fill="white" transform="translate(0.5)"/>
</clipPath>
</defs>
</svg>
