<svg width="20" height="20" viewBox="0 0 20 20" fill="none" xmlns="http://www.w3.org/2000/svg">
<path d="M9.99996 1.6665C8.90561 1.6665 7.82198 1.88205 6.81093 2.30084C5.79988 2.71963 4.88122 3.33346 4.1074 4.10728C2.5446 5.67008 1.66663 7.7897 1.66663 9.99984C1.66663 13.6832 4.05829 16.8082 7.36663 17.9165C7.78329 17.9832 7.91663 17.7248 7.91663 17.4998V16.0915C5.60829 16.5915 5.11663 14.9748 5.11663 14.9748C4.73329 14.0082 4.19163 13.7498 4.19163 13.7498C3.43329 13.2332 4.24996 13.2498 4.24996 13.2498C5.08329 13.3082 5.52496 14.1082 5.52496 14.1082C6.24996 15.3748 7.47496 14.9998 7.94996 14.7998C8.02496 14.2582 8.24163 13.8915 8.47496 13.6832C6.62496 13.4748 4.68329 12.7582 4.68329 9.58317C4.68329 8.65817 4.99996 7.9165 5.54163 7.32484C5.45829 7.1165 5.16663 6.24984 5.62496 5.12484C5.62496 5.12484 6.32496 4.89984 7.91663 5.97484C8.57496 5.7915 9.29163 5.69984 9.99996 5.69984C10.7083 5.69984 11.425 5.7915 12.0833 5.97484C13.675 4.89984 14.375 5.12484 14.375 5.12484C14.8333 6.24984 14.5416 7.1165 14.4583 7.32484C15 7.9165 15.3166 8.65817 15.3166 9.58317C15.3166 12.7665 13.3666 13.4665 11.5083 13.6748C11.8083 13.9332 12.0833 14.4415 12.0833 15.2165V17.4998C12.0833 17.7248 12.2166 17.9915 12.6416 17.9165C15.95 16.7998 18.3333 13.6832 18.3333 9.99984C18.3333 8.90549 18.1177 7.82186 17.699 6.81081C17.2802 5.79976 16.6663 4.8811 15.8925 4.10728C15.1187 3.33346 14.2 2.71963 13.189 2.30084C12.1779 1.88205 11.0943 1.6665 9.99996 1.6665Z" fill="#001F3E"/>
</svg>
