<svg width="64" height="14" viewBox="0 0 64 14" fill="none" xmlns="http://www.w3.org/2000/svg">
<path d="M12.4316 7.28C12.4316 11.42 9.35156 14 5.11156 14H0.151563V0.539999H5.17156C9.53156 0.539999 12.4316 3.22 12.4316 7.28ZM9.43156 7.28C9.43156 4.86 7.71156 3.24 5.17156 3.24H3.07156V11.38H5.11156C7.63156 11.38 9.43156 9.8 9.43156 7.28ZM23.752 14H16.512C14.652 14 13.932 13.04 13.932 11.5V3.06C13.932 1.52 14.652 0.539999 16.512 0.539999H23.632V3.16H16.852V5.96H23.212V8.58H16.852V11.38H23.752V14ZM37.8925 7.28C37.8925 11.42 34.8125 14 30.5725 14H25.6125V0.539999H30.6325C34.9925 0.539999 37.8925 3.22 37.8925 7.28ZM34.8925 7.28C34.8925 4.86 33.1725 3.24 30.6325 3.24H28.5325V11.38H30.5725C33.0925 11.38 34.8925 9.8 34.8925 7.28ZM49.213 14H41.973C40.113 14 39.393 13.04 39.393 11.5V3.06C39.393 1.52 40.113 0.539999 41.973 0.539999H49.093V3.16H42.313V5.96H48.673V8.58H42.313V11.38H49.213V14ZM53.0334 14H49.5334L52.7334 8.9C53.2134 8.14 53.4134 7.64 53.4134 7.16C53.4134 6.66 53.1934 6.18 52.7334 5.44L49.6734 0.539999H53.0934L55.4734 4.48C55.7534 4.96 55.9534 5.44 56.0934 5.94H57.1734C57.2934 5.44 57.5134 4.96 57.7934 4.48L60.1734 0.539999H63.5934L60.5134 5.44C60.0534 6.18 59.8534 6.66 59.8534 7.16C59.8534 7.64 60.0334 8.14 60.5134 8.9L63.7134 14H60.2334L57.7934 10.06C57.5134 9.58 57.3134 9.1 57.1734 8.62H56.0934C55.9534 9.1 55.7334 9.58 55.4534 10.06L53.0334 14Z" fill="#001F3E"/>
</svg>
