<svg width="20" height="20" viewBox="0 0 20 20" fill="none" xmlns="http://www.w3.org/2000/svg">
<path d="M18.7167 5.00008C18.075 5.29174 17.3833 5.48341 16.6667 5.57508C17.4 5.13341 17.9667 4.43341 18.2333 3.59174C17.5417 4.00841 16.775 4.30008 15.9667 4.46674C15.3083 3.75008 14.3833 3.33341 13.3333 3.33341C11.375 3.33341 9.77499 4.93341 9.77499 6.90841C9.77499 7.19174 9.80833 7.46674 9.86666 7.72508C6.89999 7.57508 4.25833 6.15007 2.49999 3.99174C2.19166 4.51674 2.01666 5.13341 2.01666 5.78341C2.01666 7.02508 2.64166 8.12508 3.60833 8.75008C3.01666 8.75008 2.46666 8.58341 1.98333 8.33341V8.35841C1.98333 10.0917 3.21666 11.5417 4.84999 11.8667C4.3256 12.0102 3.77507 12.0302 3.24166 11.9251C3.468 12.6355 3.91127 13.2571 4.50917 13.7025C5.10707 14.148 5.82953 14.3948 6.57499 14.4084C5.31135 15.4088 3.74499 15.9495 2.13333 15.9417C1.84999 15.9417 1.56666 15.9251 1.28333 15.8917C2.86666 16.9084 4.74999 17.5001 6.76666 17.5001C13.3333 17.5001 16.9417 12.0501 16.9417 7.32508C16.9417 7.16674 16.9417 7.01674 16.9333 6.85841C17.6333 6.35841 18.2333 5.72508 18.7167 5.00008Z" fill="#001F3E"/>
</svg>

